<svg width="39" height="37" viewBox="0 0 39 37" fill="none" xmlns="http://www.w3.org/2000/svg">
<path d="M32.7695 7.64299C29.6703 6.38018 26.2382 6.00773 22.9003 6.57195C20.421 6.91994 17.9896 7.53361 15.6535 8.40104L13.1319 2.56579C12.6678 1.59106 11.8118 0.832549 10.7511 0.456141C9.69045 0.0797326 8.51137 0.116063 7.47178 0.557187C6.40652 0.938893 5.54137 1.7017 5.06554 2.67877C4.58971 3.65584 4.54193 4.76766 4.93264 5.77107L9.69027 16.781L7.06444 15.774C5.90995 15.3356 4.61539 15.3432 3.45895 15.7953C2.3025 16.2474 1.37647 17.1078 0.879827 18.1917C0.628512 18.7291 0.493655 19.3076 0.48324 19.893C0.472826 20.4785 0.587066 21.059 0.819196 21.6002C1.25065 22.6567 2.10975 23.5055 3.20848 23.9608L11.2931 27.9045C12.2274 29.3544 13.4407 30.6257 14.8711 31.6536C15.9387 32.4568 17.1377 33.0918 18.4222 33.5344L19.3357 35.6483C19.4623 35.9511 19.7075 36.1958 20.021 36.3318C20.3345 36.4678 20.6923 36.4848 21.0208 36.3794L37.314 30.0101C37.6255 29.8653 37.8673 29.6138 37.9896 29.3074C38.1119 29.0011 38.1055 28.6631 37.9715 28.3631L36.687 25.3905C37.8755 21.9147 37.7111 18.163 36.2236 14.8125L33.369 8.20655C33.2447 7.95853 33.0329 7.75941 32.7695 7.64299ZM33.9047 15.7833C35.2445 18.6813 35.3901 21.9545 34.3133 24.9671C34.1403 25.2661 34.0952 25.6155 34.1873 25.9429L35.2149 28.3211L21.323 33.7517L20.6189 32.1223C20.5412 31.9418 20.4176 31.7825 20.2589 31.6582C20.1002 31.534 19.9112 31.4488 19.7086 31.4099C18.5385 31.0766 17.4529 30.5252 16.5158 29.7881C15.2565 28.8921 14.208 27.76 13.4356 26.4621C13.32 26.2287 13.127 26.0377 12.8854 25.9178L4.35357 21.7629C4.09063 21.6622 3.85197 21.513 3.65142 21.3241C3.45088 21.1351 3.29245 20.9102 3.18534 20.6623C3.07822 20.4145 3.02456 20.1486 3.02746 19.8801C3.03036 19.6117 3.08976 19.346 3.20223 19.0985C3.43361 18.5907 3.86673 18.1874 4.40805 17.9758C4.94937 17.7642 5.55545 17.7612 6.09541 17.9675L11.0367 19.8968L12.5306 23.3539L14.3975 21.3371L7.2753 4.85528C7.1428 4.43594 7.18842 3.98311 7.40255 3.59214C7.61668 3.20117 7.98262 2.90256 8.42331 2.75917C8.84265 2.56635 9.3236 2.5339 9.7649 2.66865C10.2062 2.8034 10.5734 3.09483 10.7893 3.48159L16.4033 16.4733L18.9505 16.0309L16.6098 10.614C17.6006 10.248 18.6106 9.93051 19.6354 9.66288L22.1237 15.4211L24.1643 15.0738L21.619 9.18348C22.1373 9.08382 22.6721 8.99059 23.2281 8.9148C23.8999 8.82677 24.576 8.77299 25.2533 8.75371L27.7035 14.4238L29.7441 14.0765L27.4748 8.82479C28.7578 8.91374 30.0202 9.16948 31.2261 9.58476L33.9047 15.7833Z" fill="black"/>
</svg>
