<svg width="378" height="314" viewBox="0 0 378 314" fill="none" xmlns="http://www.w3.org/2000/svg">
<g clip-path="url(#clip0_22_1454)">
<rect width="378" height="314" rx="30" fill="#271A58"/>
<rect x="0.256963" y="0.367284" width="100.833" height="100.833" rx="18.7079" transform="matrix(0.984808 0.173648 -0.174411 0.984673 13.5875 -96.0254)" fill="#D9B6FF"/>
<rect x="0.256963" y="0.367284" width="100.833" height="100.833" rx="18.7079" transform="matrix(0.984808 0.173648 -0.174411 0.984673 13.5875 -96.0254)" stroke="#271A58" stroke-width="0.634167"/>
<rect x="0.256963" y="0.367284" width="100.833" height="100.833" rx="18.7079" transform="matrix(0.984808 0.173648 -0.174411 0.984673 121.085 -77.0707)" fill="#1FA46C"/>
<rect x="0.256963" y="0.367284" width="100.833" height="100.833" rx="18.7079" transform="matrix(0.984808 0.173648 -0.174411 0.984673 121.085 -77.0707)" stroke="#271A58" stroke-width="0.634167"/>
<rect x="0.256963" y="0.367284" width="100.833" height="100.833" rx="18.7079" transform="matrix(0.984808 0.173648 -0.174411 0.984673 228.582 -58.1161)" fill="#565EEF"/>
<rect x="0.256963" y="0.367284" width="100.833" height="100.833" rx="18.7079" transform="matrix(0.984808 0.173648 -0.174411 0.984673 228.582 -58.1161)" stroke="#271A58" stroke-width="0.634167"/>
<rect x="0.256963" y="0.367284" width="100.833" height="100.833" rx="18.7079" transform="matrix(0.984808 0.173648 -0.174411 0.984673 336.079 -39.1615)" fill="#00C1FF"/>
<rect x="0.256963" y="0.367284" width="100.833" height="100.833" rx="18.7079" transform="matrix(0.984808 0.173648 -0.174411 0.984673 336.079 -39.1615)" stroke="#271A58" stroke-width="0.634167"/>
<rect x="0.256963" y="0.367284" width="100.833" height="100.833" rx="18.7079" transform="matrix(0.984808 0.173648 -0.174411 0.984673 -5.35294 11.3941)" fill="#F25050"/>
<rect x="0.256963" y="0.367284" width="100.833" height="100.833" rx="18.7079" transform="matrix(0.984808 0.173648 -0.174411 0.984673 -5.35294 11.3941)" stroke="#271A58" stroke-width="0.634167"/>
<rect x="0.256963" y="0.367284" width="100.833" height="100.833" rx="18.7079" transform="matrix(0.984808 0.173648 -0.174411 0.984673 102.144 30.3487)" fill="#FFC700"/>
<rect x="0.256963" y="0.367284" width="100.833" height="100.833" rx="18.7079" transform="matrix(0.984808 0.173648 -0.174411 0.984673 102.144 30.3487)" stroke="#271A58" stroke-width="0.634167"/>
<rect x="0.256963" y="0.367284" width="100.833" height="100.833" rx="18.7079" transform="matrix(0.984808 0.173648 -0.174411 0.984673 209.64 49.3033)" fill="#99D100"/>
<rect x="0.256963" y="0.367284" width="100.833" height="100.833" rx="18.7079" transform="matrix(0.984808 0.173648 -0.174411 0.984673 209.64 49.3033)" stroke="#271A58" stroke-width="0.634167"/>
<rect x="0.256963" y="0.367284" width="100.833" height="100.833" rx="18.7079" transform="matrix(0.984808 0.173648 -0.174411 0.984673 317.137 68.258)" fill="#AD61FF"/>
<rect x="0.256963" y="0.367284" width="100.833" height="100.833" rx="18.7079" transform="matrix(0.984808 0.173648 -0.174411 0.984673 317.137 68.258)" stroke="#271A58" stroke-width="0.634167"/>
<rect x="0.256963" y="0.367284" width="100.833" height="100.833" rx="18.7079" transform="matrix(0.984808 0.173648 -0.174411 0.984673 -24.2943 118.814)" fill="#565EEF"/>
<rect x="0.256963" y="0.367284" width="100.833" height="100.833" rx="18.7079" transform="matrix(0.984808 0.173648 -0.174411 0.984673 -24.2943 118.814)" stroke="#271A58" stroke-width="0.634167"/>
<rect x="0.256963" y="0.367284" width="100.833" height="100.833" rx="18.7079" transform="matrix(0.984808 0.173648 -0.174411 0.984673 83.2027 137.768)" fill="#00C1FF"/>
<rect x="0.256963" y="0.367284" width="100.833" height="100.833" rx="18.7079" transform="matrix(0.984808 0.173648 -0.174411 0.984673 83.2027 137.768)" stroke="#271A58" stroke-width="0.634167"/>
<rect x="0.256963" y="0.367284" width="100.833" height="100.833" rx="18.7079" transform="matrix(0.984808 0.173648 -0.174411 0.984673 190.7 156.723)" fill="#FF6D00"/>
<rect x="0.256963" y="0.367284" width="100.833" height="100.833" rx="18.7079" transform="matrix(0.984808 0.173648 -0.174411 0.984673 190.7 156.723)" stroke="#271A58" stroke-width="0.634167"/>
<rect x="0.256963" y="0.367284" width="100.833" height="100.833" rx="18.7079" transform="matrix(0.984808 0.173648 -0.174411 0.984673 298.197 175.678)" fill="#1FA46C"/>
<rect x="0.256963" y="0.367284" width="100.833" height="100.833" rx="18.7079" transform="matrix(0.984808 0.173648 -0.174411 0.984673 298.197 175.678)" stroke="#271A58" stroke-width="0.634167"/>
<rect x="0.256963" y="0.367284" width="100.833" height="100.833" rx="18.7079" transform="matrix(0.984808 0.173648 -0.174411 0.984673 -43.2348 226.233)" fill="#AD61FF"/>
<rect x="0.256963" y="0.367284" width="100.833" height="100.833" rx="18.7079" transform="matrix(0.984808 0.173648 -0.174411 0.984673 -43.2348 226.233)" stroke="#271A58" stroke-width="0.634167"/>
<rect x="0.256963" y="0.367284" width="100.833" height="100.833" rx="18.7079" transform="matrix(0.984808 0.173648 -0.174411 0.984673 64.2623 245.188)" fill="#99D100"/>
<rect x="0.256963" y="0.367284" width="100.833" height="100.833" rx="18.7079" transform="matrix(0.984808 0.173648 -0.174411 0.984673 64.2623 245.188)" stroke="#271A58" stroke-width="0.634167"/>
<rect x="0.256963" y="0.367284" width="100.833" height="100.833" rx="18.7079" transform="matrix(0.984808 0.173648 -0.174411 0.984673 171.758 264.142)" fill="#FFC700"/>
<rect x="0.256963" y="0.367284" width="100.833" height="100.833" rx="18.7079" transform="matrix(0.984808 0.173648 -0.174411 0.984673 171.758 264.142)" stroke="#271A58" stroke-width="0.634167"/>
<rect x="0.256963" y="0.367284" width="100.833" height="100.833" rx="18.7079" transform="matrix(0.984808 0.173648 -0.174411 0.984673 279.255 283.097)" fill="#D9B6FF"/>
<rect x="0.256963" y="0.367284" width="100.833" height="100.833" rx="18.7079" transform="matrix(0.984808 0.173648 -0.174411 0.984673 279.255 283.097)" stroke="#271A58" stroke-width="0.634167"/>
</g>
<defs>
<clipPath id="clip0_22_1454">
<rect width="378" height="314" rx="30" fill="white"/>
</clipPath>
</defs>
</svg>
