<svg width="407" height="338" viewBox="0 0 407 338" fill="none" xmlns="http://www.w3.org/2000/svg">
<g clip-path="url(#clip0_22_1524)">
<rect width="406.228" height="337.449" rx="32.2403" fill="#99D100"/>
<rect x="0.276153" y="0.394712" width="113.73" height="151.867" rx="20.105" transform="matrix(0.984808 0.173648 -0.174411 0.984673 -51.3957 -115.012)" fill="#BCEC30"/>
<rect x="0.276153" y="0.394712" width="113.73" height="151.867" rx="20.105" transform="matrix(0.984808 0.173648 -0.174411 0.984673 -51.3957 -115.012)" stroke="#202027" stroke-width="0.681525"/>
<rect x="0.276153" y="0.394712" width="113.73" height="151.867" rx="20.105" transform="matrix(0.984808 0.173648 -0.174411 0.984673 67.8914 -93.9785)" fill="#BCEC30"/>
<rect x="0.276153" y="0.394712" width="113.73" height="151.867" rx="20.105" transform="matrix(0.984808 0.173648 -0.174411 0.984673 67.8914 -93.9785)" stroke="#202027" stroke-width="0.681525"/>
<mask id="path-5-outside-1_22_1524" maskUnits="userSpaceOnUse" x="90.447" y="-31.5433" width="38.6647" height="45.9283" fill="black">
<rect fill="white" x="90.447" y="-31.5433" width="38.6647" height="45.9283"/>
<path d="M105.397 -4.23374C105.704 -5.96619 106.337 -7.31959 107.295 -8.29394C108.26 -9.30293 109.59 -10.3548 111.285 -11.4494C112.456 -12.2078 113.339 -12.856 113.935 -13.3941C114.536 -13.9669 114.902 -14.6171 115.03 -15.3448C115.208 -16.3496 114.916 -17.2229 114.154 -17.9647C113.433 -18.735 112.397 -19.2394 111.045 -19.4777C109.659 -19.7221 108.336 -19.6159 107.076 -19.1593C105.85 -18.6965 104.787 -17.9371 103.885 -16.8813L96.8763 -22.4048C98.7267 -24.5798 101.071 -26.1137 103.909 -27.0068C106.748 -27.8998 110.004 -28.0225 113.677 -27.3748C117.801 -26.6476 120.957 -25.1978 123.145 -23.0254C125.374 -20.8816 126.215 -18.2677 125.669 -15.184C125.418 -13.7634 124.951 -12.5414 124.27 -11.5182C123.594 -10.5296 122.842 -9.7153 122.014 -9.07523C121.227 -8.4637 120.213 -7.78488 118.973 -7.03877C117.617 -6.2417 116.597 -5.52823 115.914 -4.89837C115.237 -4.30315 114.815 -3.53778 114.65 -2.60225L105.397 -4.23374ZM107.593 10.3031C105.895 10.0037 104.584 9.23645 103.659 8.00144C102.74 6.73179 102.416 5.33468 102.686 3.81011C102.962 2.2509 103.726 1.06359 104.978 0.248192C106.265 -0.5611 107.775 -0.812986 109.508 -0.507465C111.24 -0.201944 112.572 0.550996 113.503 1.75135C114.434 2.95171 114.762 4.3315 114.485 5.89071C114.215 7.41527 113.431 8.61685 112.132 9.49544C110.839 10.3394 109.326 10.6086 107.593 10.3031Z"/>
</mask>
<path d="M105.397 -4.23374C105.704 -5.96619 106.337 -7.31959 107.295 -8.29394C108.26 -9.30293 109.59 -10.3548 111.285 -11.4494C112.456 -12.2078 113.339 -12.856 113.935 -13.3941C114.536 -13.9669 114.902 -14.6171 115.03 -15.3448C115.208 -16.3496 114.916 -17.2229 114.154 -17.9647C113.433 -18.735 112.397 -19.2394 111.045 -19.4777C109.659 -19.7221 108.336 -19.6159 107.076 -19.1593C105.85 -18.6965 104.787 -17.9371 103.885 -16.8813L96.8763 -22.4048C98.7267 -24.5798 101.071 -26.1137 103.909 -27.0068C106.748 -27.8998 110.004 -28.0225 113.677 -27.3748C117.801 -26.6476 120.957 -25.1978 123.145 -23.0254C125.374 -20.8816 126.215 -18.2677 125.669 -15.184C125.418 -13.7634 124.951 -12.5414 124.27 -11.5182C123.594 -10.5296 122.842 -9.7153 122.014 -9.07523C121.227 -8.4637 120.213 -7.78488 118.973 -7.03877C117.617 -6.2417 116.597 -5.52823 115.914 -4.89837C115.237 -4.30315 114.815 -3.53778 114.65 -2.60225L105.397 -4.23374ZM107.593 10.3031C105.895 10.0037 104.584 9.23645 103.659 8.00144C102.74 6.73179 102.416 5.33468 102.686 3.81011C102.962 2.2509 103.726 1.06359 104.978 0.248192C106.265 -0.5611 107.775 -0.812986 109.508 -0.507465C111.24 -0.201944 112.572 0.550996 113.503 1.75135C114.434 2.95171 114.762 4.3315 114.485 5.89071C114.215 7.41527 113.431 8.61685 112.132 9.49544C110.839 10.3394 109.326 10.6086 107.593 10.3031Z" fill="white"/>
<path d="M105.397 -4.23374L104.856 -4.32921L104.76 -3.78782L105.301 -3.69234L105.397 -4.23374ZM107.295 -8.29394L107.687 -7.90851L107.693 -7.91419L107.295 -8.29394ZM111.285 -11.4494L111.583 -10.9877L111.584 -10.9881L111.285 -11.4494ZM113.935 -13.3941L114.303 -12.9864L114.308 -12.9912L114.314 -12.9961L113.935 -13.3941ZM114.154 -17.9647L113.753 -17.5889L113.762 -17.5796L113.771 -17.5707L114.154 -17.9647ZM107.076 -19.1593L106.889 -19.6761L106.882 -19.6735L107.076 -19.1593ZM103.885 -16.8813L103.544 -16.4494L103.959 -16.1222L104.303 -16.5245L103.885 -16.8813ZM96.8763 -22.4048L96.4575 -22.7608L96.0876 -22.3261L96.5356 -21.973L96.8763 -22.4048ZM103.909 -27.0068L104.074 -26.4824L103.909 -27.0068ZM123.145 -23.0254L122.757 -22.6352L122.764 -22.6291L123.145 -23.0254ZM124.27 -11.5182L124.724 -11.2083L124.727 -11.2137L124.27 -11.5182ZM122.014 -9.07523L121.678 -9.51006L121.677 -9.50926L122.014 -9.07523ZM118.973 -7.03878L119.252 -6.56488L119.257 -6.56781L118.973 -7.03878ZM115.914 -4.89837L116.277 -4.4855L116.287 -4.49432L115.914 -4.89837ZM114.65 -2.60226L114.554 -2.06086L115.095 -1.96539L115.191 -2.50678L114.65 -2.60226ZM103.659 8.00144L103.213 8.32391L103.218 8.33111L103.659 8.00144ZM104.978 0.248192L104.686 -0.217144L104.679 -0.212395L104.978 0.248192ZM113.503 1.75135L113.069 2.08841L113.503 1.75135ZM112.132 9.49544L112.432 9.95577L112.439 9.95072L112.132 9.49544ZM105.938 -4.13826C106.232 -5.79254 106.826 -7.03352 107.687 -7.90855L106.904 -8.67933C105.847 -7.60566 105.176 -6.13985 104.856 -4.32921L105.938 -4.13826ZM107.693 -7.91419C108.618 -8.88169 109.91 -9.90705 111.583 -10.9877L110.987 -11.9111C109.27 -10.8025 107.903 -9.72417 106.898 -8.67369L107.693 -7.91419ZM111.584 -10.9881C112.764 -11.7526 113.675 -12.4194 114.303 -12.9864L113.566 -13.8019C113.002 -13.2927 112.147 -12.6629 110.986 -11.9107L111.584 -10.9881ZM114.314 -12.9961C114.989 -13.6394 115.42 -14.392 115.572 -15.2493L114.489 -15.4402C114.383 -14.8423 114.083 -14.2945 113.556 -13.7922L114.314 -12.9961ZM115.572 -15.2493C115.783 -16.4423 115.424 -17.4964 114.538 -18.3587L113.771 -17.5707C114.409 -16.9494 114.634 -16.2569 114.489 -15.4402L115.572 -15.2493ZM114.556 -18.3405C113.732 -19.2206 112.575 -19.7663 111.141 -20.0191L110.949 -18.9363C112.219 -18.7124 113.134 -18.2495 113.753 -17.5889L114.556 -18.3405ZM111.141 -20.0191C109.665 -20.2793 108.244 -20.1673 106.889 -19.6761L107.263 -18.6424C108.428 -19.0646 109.653 -19.1648 110.949 -18.9363L111.141 -20.0191ZM106.882 -19.6735C105.564 -19.176 104.425 -18.3601 103.467 -17.2381L104.303 -16.5245C105.148 -17.5142 106.136 -18.2169 107.27 -18.645L106.882 -19.6735ZM104.226 -17.3131L97.2169 -22.8367L96.5356 -21.973L103.544 -16.4494L104.226 -17.3131ZM97.295 -22.0488C99.0754 -24.1414 101.33 -25.6191 104.074 -26.4824L103.745 -27.5311C100.812 -26.6084 98.378 -25.0181 96.4575 -22.7608L97.295 -22.0488ZM104.074 -26.4824C106.81 -27.343 109.973 -27.4695 113.581 -26.8334L113.773 -27.9162C110.034 -28.5754 106.686 -28.4566 103.745 -27.5311L104.074 -26.4824ZM113.581 -26.8334C117.633 -26.1189 120.673 -24.7049 122.757 -22.6352L123.533 -23.4157C121.241 -25.6907 117.969 -27.1764 113.773 -27.9162L113.581 -26.8334ZM122.764 -22.6291C124.859 -20.6141 125.643 -18.1855 125.128 -15.2794L126.211 -15.0885C126.788 -18.35 125.889 -21.149 123.526 -23.4217L122.764 -22.6291ZM125.128 -15.2794C124.887 -13.9207 124.445 -12.7727 123.812 -11.8227L124.727 -11.2137C125.457 -12.3101 125.948 -13.606 126.211 -15.0885L125.128 -15.2794ZM123.816 -11.8281C123.168 -10.8803 122.455 -10.1102 121.678 -9.51006L122.35 -8.64041C123.23 -9.32038 124.02 -10.1789 124.724 -11.2084L123.816 -11.8281ZM121.677 -9.50926C120.913 -8.91557 119.919 -8.24914 118.69 -7.50973L119.257 -6.56781C120.508 -7.32062 121.541 -8.01182 122.351 -8.64121L121.677 -9.50926ZM118.695 -7.51264C117.325 -6.70734 116.267 -5.97085 115.541 -5.30242L116.287 -4.49432C116.928 -5.08562 117.91 -5.77607 119.252 -6.56491L118.695 -7.51264ZM115.551 -5.31113C114.775 -4.62878 114.294 -3.74902 114.108 -2.69773L115.191 -2.50678C115.336 -3.32654 115.699 -3.97753 116.277 -4.48561L115.551 -5.31113ZM114.746 -3.14365L105.493 -4.77513L105.301 -3.69234L114.554 -2.06086L114.746 -3.14365ZM107.689 9.76168C106.111 9.48345 104.93 8.7816 104.099 7.67178L103.218 8.33111C104.237 9.6913 105.679 10.5239 107.497 10.8445L107.689 9.76168ZM104.104 7.67902C103.272 6.5282 102.984 5.28152 103.227 3.90559L102.144 3.71464C101.848 5.38784 102.208 6.93537 103.213 8.32386L104.104 7.67902ZM103.227 3.90559C103.479 2.48612 104.162 1.43567 105.278 0.708782L104.679 -0.212395C103.29 0.691516 102.445 2.01568 102.144 3.71464L103.227 3.90559ZM105.271 0.713471C106.424 -0.0117691 107.791 -0.251882 109.412 0.0339266L109.604 -1.04886C107.759 -1.37409 106.106 -1.11043 104.686 -0.217087L105.271 0.713471ZM109.412 0.0339266C111.033 0.319735 112.234 1.01271 113.069 2.08841L113.938 1.4143C112.91 0.0892774 111.448 -0.723626 109.604 -1.04886L109.412 0.0339266ZM113.069 2.08841C113.9 3.16045 114.194 4.38158 113.944 5.79524L115.027 5.98619C115.329 4.28142 114.968 2.74298 113.938 1.4143L113.069 2.08841ZM113.944 5.79524C113.7 7.17116 113.001 8.2438 111.824 9.04016L112.439 9.95072C113.86 8.9899 114.731 7.65938 115.027 5.98619L113.944 5.79524ZM111.831 9.03517C110.672 9.79196 109.305 10.0466 107.689 9.76168L107.497 10.8445C109.347 11.1706 111.005 10.8868 112.432 9.95571L111.831 9.03517Z" fill="#202027" mask="url(#path-5-outside-1_22_1524)"/>
<rect x="0.276153" y="0.394712" width="113.73" height="151.867" rx="20.105" transform="matrix(0.984808 0.173648 -0.174411 0.984673 187.179 -72.9449)" fill="#BCEC30"/>
<rect x="0.276153" y="0.394712" width="113.73" height="151.867" rx="20.105" transform="matrix(0.984808 0.173648 -0.174411 0.984673 187.179 -72.9449)" stroke="#202027" stroke-width="0.681525"/>
<mask id="path-8-outside-2_22_1524" maskUnits="userSpaceOnUse" x="205.098" y="-16.1278" width="47.128" height="56.0059" fill="black">
<rect fill="white" x="205.098" y="-16.1278" width="47.128" height="56.0059"/>
<path d="M223.474 17.3742C223.855 15.2267 224.639 13.5491 225.828 12.3414C227.024 11.0907 228.672 9.7869 230.773 8.43C232.224 7.49003 233.319 6.68651 234.057 6.01947C234.803 5.30947 235.256 4.50351 235.415 3.60158C235.636 2.35606 235.274 1.27355 234.33 0.354065C233.436 -0.600797 232.151 -1.22592 230.476 -1.52131C228.757 -1.82428 227.117 -1.69272 225.555 -1.12663C224.036 -0.552972 222.718 0.388251 221.6 1.69704L212.912 -5.14967C215.206 -7.84556 218.112 -9.74699 221.63 -10.8539C225.149 -11.9609 229.185 -12.1129 233.738 -11.3101C238.849 -10.4088 242.761 -8.61172 245.474 -5.91893C248.237 -3.26151 249.28 -0.0215681 248.603 3.8009C248.291 5.56181 247.712 7.07643 246.868 8.34477C246.03 9.57015 245.099 10.5795 244.072 11.3729C243.096 12.131 241.84 12.9724 240.303 13.8972C238.622 14.8852 237.358 15.7696 236.511 16.5503C235.671 17.2881 235.149 18.2368 234.943 19.3965L223.474 17.3742ZM226.196 35.3932C224.092 35.022 222.466 34.071 221.32 32.5402C220.181 30.9664 219.779 29.2346 220.114 27.3449C220.456 25.4122 221.403 23.9404 222.955 22.9297C224.551 21.9266 226.422 21.6143 228.57 21.993C230.718 22.3717 232.368 23.305 233.522 24.7929C234.676 26.2808 235.082 27.9911 234.74 29.9238C234.405 31.8136 233.432 33.303 231.822 34.3921C230.219 35.4382 228.344 35.7719 226.196 35.3932Z"/>
</mask>
<path d="M223.474 17.3742C223.855 15.2267 224.639 13.5491 225.828 12.3414C227.024 11.0907 228.672 9.7869 230.773 8.43C232.224 7.49003 233.319 6.68651 234.057 6.01947C234.803 5.30947 235.256 4.50351 235.415 3.60158C235.636 2.35606 235.274 1.27355 234.33 0.354065C233.436 -0.600797 232.151 -1.22592 230.476 -1.52131C228.757 -1.82428 227.117 -1.69272 225.555 -1.12663C224.036 -0.552972 222.718 0.388251 221.6 1.69704L212.912 -5.14967C215.206 -7.84556 218.112 -9.74699 221.63 -10.8539C225.149 -11.9609 229.185 -12.1129 233.738 -11.3101C238.849 -10.4088 242.761 -8.61172 245.474 -5.91893C248.237 -3.26151 249.28 -0.0215681 248.603 3.8009C248.291 5.56181 247.712 7.07643 246.868 8.34477C246.03 9.57015 245.099 10.5795 244.072 11.3729C243.096 12.131 241.84 12.9724 240.303 13.8972C238.622 14.8852 237.358 15.7696 236.511 16.5503C235.671 17.2881 235.149 18.2368 234.943 19.3965L223.474 17.3742ZM226.196 35.3932C224.092 35.022 222.466 34.071 221.32 32.5402C220.181 30.9664 219.779 29.2346 220.114 27.3449C220.456 25.4122 221.403 23.9404 222.955 22.9297C224.551 21.9266 226.422 21.6143 228.57 21.993C230.718 22.3717 232.368 23.305 233.522 24.7929C234.676 26.2808 235.082 27.9911 234.74 29.9238C234.405 31.8136 233.432 33.303 231.822 34.3921C230.219 35.4382 228.344 35.7719 226.196 35.3932Z" fill="white"/>
<path d="M223.474 17.3742L222.933 17.2787L222.837 17.8201L223.378 17.9156L223.474 17.3742ZM225.828 12.3414L226.219 12.7268L226.225 12.7211L225.828 12.3414ZM230.773 8.43L231.071 8.8917L231.072 8.8913L230.773 8.43ZM234.057 6.01947L234.425 6.42722L234.431 6.42242L234.436 6.41749L234.057 6.01947ZM234.33 0.354065L233.928 0.729893L233.937 0.739188L233.946 0.74807L234.33 0.354065ZM225.555 -1.12663L225.368 -1.6435L225.361 -1.6409L225.555 -1.12663ZM221.6 1.69704L221.259 2.12886L221.675 2.45607L222.018 2.05383L221.6 1.69704ZM212.912 -5.14967L212.494 -5.50567L212.124 -5.07093L212.572 -4.71784L212.912 -5.14967ZM221.63 -10.8539L221.795 -10.3296L221.63 -10.8539ZM245.474 -5.91893L245.086 -5.52865L245.092 -5.52262L245.474 -5.91893ZM246.868 8.34477L247.322 8.65463L247.325 8.64924L246.868 8.34477ZM244.072 11.3729L243.736 10.9381L243.735 10.9389L244.072 11.3729ZM240.303 13.8972L240.581 14.3711L240.586 14.3682L240.303 13.8972ZM236.511 16.5503L236.874 16.9632L236.883 16.9544L236.511 16.5503ZM234.943 19.3965L234.847 19.9379L235.389 20.0333L235.485 19.4919L234.943 19.3965ZM221.32 32.5402L220.874 32.8627L220.879 32.8699L221.32 32.5402ZM222.955 22.9297L222.663 22.4644L222.656 22.4691L222.955 22.9297ZM233.522 24.7929L233.088 25.13L233.088 25.13L233.522 24.7929ZM231.822 34.3921L232.123 34.8524L232.13 34.8473L231.822 34.3921ZM224.016 17.4696C224.382 15.4004 225.129 13.8352 226.219 12.7268L225.436 11.956C224.15 13.2631 223.327 15.0531 222.933 17.2787L224.016 17.4696ZM226.225 12.7211C227.381 11.5119 228.992 10.2346 231.071 8.89169L230.475 7.96831C228.352 9.33919 226.666 10.6695 225.43 11.9616L226.225 12.7211ZM231.072 8.8913C232.532 7.94517 233.655 7.12316 234.425 6.42722L233.688 5.61172C232.982 6.24987 231.916 7.03488 230.474 7.9687L231.072 8.8913ZM234.436 6.41749C235.256 5.63703 235.774 4.72869 235.957 3.69706L234.874 3.50611C234.737 4.27833 234.35 4.98191 233.678 5.62145L234.436 6.41749ZM235.957 3.69706C236.211 2.26337 235.782 1.00005 234.713 -0.0399407L233.946 0.74807C234.767 1.54705 235.061 2.44874 234.874 3.50611L235.957 3.69706ZM234.731 -0.0217642C233.734 -1.08633 232.329 -1.75287 230.572 -2.06271L230.38 -0.979922C231.973 -0.698981 233.137 -0.115259 233.928 0.729893L234.731 -0.0217642ZM230.572 -2.06271C228.764 -2.38152 227.025 -2.24404 225.368 -1.64345L225.742 -0.609811C227.209 -1.1414 228.751 -1.26704 230.38 -0.979922L230.572 -2.06271ZM225.361 -1.6409C223.75 -1.03249 222.356 -0.0347035 221.182 1.34025L222.018 2.05383C223.079 0.811205 224.322 -0.0734491 225.749 -0.61237L225.361 -1.6409ZM221.941 1.26521L213.253 -5.58149L212.572 -4.71784L221.259 2.12886L221.941 1.26521ZM213.331 -4.79366C215.555 -7.40723 218.371 -9.25233 221.795 -10.3296L221.466 -11.3783C217.853 -10.2416 214.857 -8.2839 212.494 -5.50567L213.331 -4.79366ZM221.795 -10.3296C225.211 -11.4041 229.154 -11.56 233.642 -10.7687L233.834 -11.8515C229.215 -12.6659 225.087 -12.5177 221.466 -11.3783L221.795 -10.3296ZM233.642 -10.7687C238.682 -9.88004 242.477 -8.11881 245.086 -5.5287L245.861 -6.30915C243.046 -9.10462 239.017 -10.9375 233.834 -11.8515L233.642 -10.7687ZM245.092 -5.52262C247.721 -2.99403 248.707 0.0606998 248.061 3.70542L249.144 3.89637C249.853 -0.103836 248.752 -3.52899 245.855 -6.31523L245.092 -5.52262ZM248.061 3.70542C247.76 5.40447 247.206 6.84512 246.41 8.0403L247.325 8.64924C248.219 7.30775 248.821 5.71915 249.144 3.89637L248.061 3.70542ZM246.414 8.03492C245.604 9.21947 244.711 10.1846 243.736 10.9381L244.408 11.8078C245.486 10.9745 246.456 9.92083 247.322 8.65461L246.414 8.03492ZM243.735 10.9389C242.782 11.6791 241.545 12.5081 240.019 13.4263L240.586 14.3682C242.134 13.4366 243.41 12.5828 244.409 11.807L243.735 10.9389ZM240.024 13.4233C238.329 14.4196 237.027 15.327 236.138 16.1463L236.883 16.9544C237.688 16.2122 238.914 15.3509 240.581 14.3711L240.024 13.4233ZM236.148 16.1376C235.209 16.9625 234.628 18.0256 234.402 19.301L235.485 19.4919C235.67 18.4481 236.133 17.6138 236.873 16.9631L236.148 16.1376ZM235.039 18.8551L223.57 16.8328L223.378 17.9156L234.847 19.9379L235.039 18.8551ZM226.292 34.8518C224.308 34.5018 222.812 33.6162 221.76 32.2105L220.879 32.8699C222.119 34.5259 223.875 35.5422 226.1 35.9345L226.292 34.8518ZM221.765 32.2178C220.712 30.7628 220.347 29.1815 220.655 27.4403L219.572 27.2494C219.211 29.2878 219.649 31.17 220.874 32.8626L221.765 32.2178ZM220.655 27.4403C220.973 25.6474 221.839 24.3125 223.255 23.3903L222.656 22.4691C220.967 23.5684 219.939 25.1769 219.572 27.2494L220.655 27.4403ZM223.248 23.395C224.709 22.4759 226.438 22.1754 228.474 22.5344L228.666 21.4516C226.406 21.0532 224.392 21.3772 222.663 22.4644L223.248 23.395ZM228.474 22.5344C230.51 22.8934 232.03 23.7668 233.088 25.13L233.957 24.4559C232.706 22.8433 230.925 21.8501 228.666 21.4516L228.474 22.5344ZM233.088 25.13C234.142 26.4896 234.515 28.0412 234.198 29.8284L235.281 30.0193C235.649 27.9411 235.21 26.0721 233.957 24.4559L233.088 25.13ZM234.198 29.8284C233.89 31.5695 233.003 32.93 231.514 33.9368L232.13 34.8473C233.862 33.6761 234.92 32.0577 235.281 30.0193L234.198 29.8284ZM231.522 33.9318C230.052 34.8907 228.323 35.2099 226.292 34.8518L226.1 35.9345C228.365 36.3339 230.386 35.9856 232.122 34.8523L231.522 33.9318Z" fill="#202027" mask="url(#path-8-outside-2_22_1524)"/>
<rect x="0.276153" y="0.394712" width="113.73" height="151.867" rx="20.105" transform="matrix(0.984808 0.173648 -0.174411 0.984673 306.465 -51.9115)" fill="#BCEC30"/>
<rect x="0.276153" y="0.394712" width="113.73" height="151.867" rx="20.105" transform="matrix(0.984808 0.173648 -0.174411 0.984673 306.465 -51.9115)" stroke="#202027" stroke-width="0.681525"/>
<mask id="path-11-outside-3_22_1524" maskUnits="userSpaceOnUse" x="324.384" y="4.90568" width="47.128" height="56.0059" fill="black">
<rect fill="white" x="324.384" y="4.90568" width="47.128" height="56.0059"/>
<path d="M342.76 38.4077C343.141 36.2602 343.925 34.5826 345.114 33.3749C346.31 32.1242 347.958 30.8204 350.059 29.4635C351.51 28.5235 352.605 27.72 353.343 27.0529C354.089 26.343 354.542 25.537 354.702 24.6351C354.922 23.3895 354.56 22.307 353.616 21.3875C352.722 20.4327 351.437 19.8076 349.762 19.5122C348.044 19.2092 346.403 19.3408 344.841 19.9068C343.322 20.4805 342.004 21.4217 340.886 22.7305L332.199 15.8838C334.492 13.1879 337.398 11.2865 340.917 10.1795C344.435 9.07258 348.471 8.92053 353.024 9.72339C358.136 10.6247 362.048 12.4218 364.76 15.1146C367.523 17.772 368.566 21.0119 367.889 24.8344C367.577 26.5953 366.999 28.1099 366.154 29.3782C365.316 30.6036 364.385 31.613 363.358 32.4064C362.382 33.1644 361.126 34.0059 359.589 34.9307C357.908 35.9187 356.644 36.8031 355.797 37.5838C354.957 38.3216 354.435 39.2703 354.229 40.4299L342.76 38.4077ZM345.482 56.4266C343.378 56.0555 341.752 55.1045 340.606 53.5737C339.467 51.9999 339.065 50.2681 339.4 48.3783C339.742 46.4456 340.689 44.9739 342.242 43.9632C343.837 42.96 345.708 42.6478 347.856 43.0265C350.004 43.4052 351.655 44.3385 352.808 45.8264C353.962 47.3143 354.368 49.0246 354.026 50.9573C353.691 52.8471 352.719 54.3365 351.108 55.4255C349.505 56.4716 347.63 56.8053 345.482 56.4266Z"/>
</mask>
<path d="M342.76 38.4077C343.141 36.2602 343.925 34.5826 345.114 33.3749C346.31 32.1242 347.958 30.8204 350.059 29.4635C351.51 28.5235 352.605 27.72 353.343 27.0529C354.089 26.343 354.542 25.537 354.702 24.6351C354.922 23.3895 354.56 22.307 353.616 21.3875C352.722 20.4327 351.437 19.8076 349.762 19.5122C348.044 19.2092 346.403 19.3408 344.841 19.9068C343.322 20.4805 342.004 21.4217 340.886 22.7305L332.199 15.8838C334.492 13.1879 337.398 11.2865 340.917 10.1795C344.435 9.07258 348.471 8.92053 353.024 9.72339C358.136 10.6247 362.048 12.4218 364.76 15.1146C367.523 17.772 368.566 21.0119 367.889 24.8344C367.577 26.5953 366.999 28.1099 366.154 29.3782C365.316 30.6036 364.385 31.613 363.358 32.4064C362.382 33.1644 361.126 34.0059 359.589 34.9307C357.908 35.9187 356.644 36.8031 355.797 37.5838C354.957 38.3216 354.435 39.2703 354.229 40.4299L342.76 38.4077ZM345.482 56.4266C343.378 56.0555 341.752 55.1045 340.606 53.5737C339.467 51.9999 339.065 50.2681 339.4 48.3783C339.742 46.4456 340.689 44.9739 342.242 43.9632C343.837 42.96 345.708 42.6478 347.856 43.0265C350.004 43.4052 351.655 44.3385 352.808 45.8264C353.962 47.3143 354.368 49.0246 354.026 50.9573C353.691 52.8471 352.719 54.3365 351.108 55.4255C349.505 56.4716 347.63 56.8053 345.482 56.4266Z" fill="white"/>
<path d="M342.76 38.4077L342.219 38.3122L342.123 38.8536L342.665 38.949L342.76 38.4077ZM345.114 33.3749L345.506 33.7603L345.511 33.7546L345.114 33.3749ZM350.059 29.4635L350.357 29.9252L350.358 29.9248L350.059 29.4635ZM353.343 27.0529L353.712 27.4607L353.717 27.4559L353.722 27.451L353.343 27.0529ZM353.616 21.3875L353.214 21.7634L353.223 21.7727L353.232 21.7815L353.616 21.3875ZM344.841 19.9068L344.654 19.39L344.647 19.3926L344.841 19.9068ZM340.886 22.7305L340.546 23.1623L340.961 23.4895L341.304 23.0873L340.886 22.7305ZM332.199 15.8838L331.78 15.5278L331.41 15.9626L331.858 16.3156L332.199 15.8838ZM340.917 10.1795L341.081 10.7039L340.917 10.1795ZM364.76 15.1146L364.372 15.5048L364.379 15.5109L364.76 15.1146ZM366.154 29.3782L366.608 29.6881L366.611 29.6827L366.154 29.3782ZM363.358 32.4064L363.022 31.9716L363.021 31.9724L363.358 32.4064ZM359.589 34.9307L359.867 35.4046L359.872 35.4016L359.589 34.9307ZM355.797 37.5838L356.16 37.9967L356.169 37.9879L355.797 37.5838ZM354.229 40.4299L354.134 40.9713L354.675 41.0668L354.771 40.5254L354.229 40.4299ZM340.606 53.5737L340.16 53.8961L340.165 53.9033L340.606 53.5737ZM342.242 43.9632L341.949 43.4979L341.942 43.5026L342.242 43.9632ZM352.808 45.8264L352.374 46.1635L352.374 46.1635L352.808 45.8264ZM351.108 55.4255L351.409 55.8859L351.416 55.8808L351.108 55.4255ZM343.302 38.5031C343.668 36.4339 344.415 34.8687 345.506 33.7603L344.722 32.9895C343.436 34.2965 342.613 36.0865 342.219 38.3122L343.302 38.5031ZM345.511 33.7546C346.667 32.5454 348.278 31.2681 350.357 29.9252L349.761 29.0018C347.638 30.3727 345.952 31.7029 344.716 32.9951L345.511 33.7546ZM350.358 29.9248C351.818 28.9786 352.941 28.1566 353.712 27.4607L352.975 26.6452C352.268 27.2833 351.202 28.0684 349.76 29.0022L350.358 29.9248ZM353.722 27.451C354.542 26.6705 355.06 25.7622 355.243 24.7305L354.16 24.5396C354.023 25.3118 353.636 26.0154 352.964 26.6549L353.722 27.451ZM355.243 24.7305C355.497 23.2969 355.068 22.0335 353.999 20.9935L353.232 21.7815C354.053 22.5805 354.347 23.4822 354.16 24.5396L355.243 24.7305ZM354.017 21.0117C353.021 19.9471 351.615 19.2806 349.858 18.9708L349.666 20.0536C351.259 20.3345 352.423 20.9182 353.214 21.7634L354.017 21.0117ZM349.858 18.9708C348.05 18.652 346.312 18.7894 344.654 19.39L345.028 20.4237C346.495 19.8921 348.038 19.7664 349.666 20.0536L349.858 18.9708ZM344.647 19.3926C343.036 20.001 341.642 20.9988 340.468 22.3737L341.304 23.0873C342.365 21.8447 343.608 20.96 345.035 20.4211L344.647 19.3926ZM341.227 22.2987L332.539 15.452L331.858 16.3156L340.546 23.1623L341.227 22.2987ZM332.617 16.2398C334.841 13.6263 337.657 11.7811 341.081 10.7039L340.752 9.65516C337.139 10.7918 334.144 12.7496 331.78 15.5278L332.617 16.2398ZM341.081 10.7039C344.497 9.62936 348.44 9.47345 352.928 10.2648L353.12 9.18199C348.501 8.36761 344.373 8.5158 340.752 9.65516L341.081 10.7039ZM352.928 10.2648C357.968 11.1534 361.763 12.9147 364.372 15.5048L365.148 14.7243C362.332 11.9289 358.303 10.096 353.12 9.18199L352.928 10.2648ZM364.379 15.5109C367.008 18.0394 367.993 21.0942 367.347 24.7389L368.43 24.9299C369.139 20.9296 368.038 17.5045 365.141 14.7182L364.379 15.5109ZM367.347 24.7389C367.046 26.438 366.492 27.8786 365.696 29.0738L366.611 29.6827C367.505 28.3412 368.107 26.7526 368.43 24.9299L367.347 24.7389ZM365.7 29.0684C364.89 30.2529 363.997 31.2181 363.022 31.9716L363.694 32.8412C364.772 32.0079 365.743 30.9543 366.608 29.6881L365.7 29.0684ZM363.021 31.9724C362.068 32.7126 360.831 33.5416 359.306 34.4597L359.872 35.4016C361.42 34.4701 362.697 33.6163 363.695 32.8404L363.021 31.9724ZM359.31 34.4568C357.615 35.4531 356.313 36.3605 355.424 37.1798L356.169 37.9879C356.974 37.2457 358.2 36.3843 359.867 35.4046L359.31 34.4568ZM355.434 37.1711C354.495 37.996 353.914 39.0591 353.688 40.3345L354.771 40.5254C354.956 39.4816 355.419 38.6472 356.16 37.9966L355.434 37.1711ZM354.325 39.8885L342.856 37.8663L342.665 38.949L354.134 40.9713L354.325 39.8885ZM345.578 55.8852C343.594 55.5353 342.099 54.6497 341.046 53.244L340.165 53.9033C341.406 55.5594 343.162 56.5757 345.387 56.968L345.578 55.8852ZM341.051 53.2513C339.999 51.7963 339.633 50.2149 339.941 48.4738L338.858 48.2829C338.497 50.3213 338.935 52.2035 340.16 53.8961L341.051 53.2513ZM339.941 48.4738C340.259 46.6809 341.125 45.346 342.541 44.4238L341.942 43.5026C340.254 44.6018 339.225 46.2104 338.858 48.2829L339.941 48.4738ZM342.534 44.4285C343.996 43.5094 345.724 43.2089 347.76 43.5679L347.952 42.4851C345.692 42.0867 343.678 42.4107 341.949 43.4979L342.534 44.4285ZM347.76 43.5679C349.796 43.9269 351.317 44.8002 352.374 46.1635L353.243 45.4894C351.993 43.8768 350.211 42.8835 347.952 42.4851L347.76 43.5679ZM352.374 46.1635C353.428 47.5231 353.801 49.0747 353.484 50.8619L354.567 51.0528C354.935 48.9745 354.497 47.1056 353.243 45.4894L352.374 46.1635ZM353.484 50.8619C353.176 52.603 352.289 53.9634 350.8 54.9703L351.416 55.8808C353.148 54.7095 354.206 53.0912 354.567 51.0528L353.484 50.8619ZM350.808 54.9653C349.339 55.9242 347.609 56.2433 345.578 55.8852L345.387 56.968C347.651 57.3673 349.672 57.0191 351.409 55.8858L350.808 54.9653Z" fill="#202027" mask="url(#path-11-outside-3_22_1524)"/>
<rect x="0.276153" y="0.394712" width="113.73" height="151.867" rx="20.105" transform="matrix(0.984808 0.173648 -0.174411 0.984673 425.752 -30.878)" fill="#BCEC30"/>
<rect x="0.276153" y="0.394712" width="113.73" height="151.867" rx="20.105" transform="matrix(0.984808 0.173648 -0.174411 0.984673 425.752 -30.878)" stroke="#202027" stroke-width="0.681525"/>
<rect x="0.276153" y="0.394712" width="113.73" height="151.867" rx="20.105" transform="matrix(0.984808 0.173648 -0.174411 0.984673 -79.0315 41.7163)" fill="#BCEC30"/>
<rect x="0.276153" y="0.394712" width="113.73" height="151.867" rx="20.105" transform="matrix(0.984808 0.173648 -0.174411 0.984673 -79.0315 41.7163)" stroke="#202027" stroke-width="0.681525"/>
<rect x="0.276153" y="0.394712" width="113.73" height="151.867" rx="20.105" transform="matrix(0.984808 0.173648 -0.174411 0.984673 40.2557 62.7499)" fill="#BCEC30"/>
<rect x="0.276153" y="0.394712" width="113.73" height="151.867" rx="20.105" transform="matrix(0.984808 0.173648 -0.174411 0.984673 40.2557 62.7499)" stroke="#202027" stroke-width="0.681525"/>
<mask id="path-16-outside-4_22_1524" maskUnits="userSpaceOnUse" x="58.175" y="119.567" width="47.128" height="56.0059" fill="black">
<rect fill="white" x="58.175" y="119.567" width="47.128" height="56.0059"/>
<path d="M76.5515 153.069C76.9319 150.922 77.7163 149.244 78.9047 148.036C80.1008 146.786 81.7492 145.482 83.85 144.125C85.3011 143.185 86.3958 142.381 87.1341 141.714C87.88 141.004 88.3328 140.198 88.4926 139.296C88.7132 138.051 88.3512 136.968 87.4067 136.049C86.5127 135.094 85.2281 134.469 83.5528 134.174C81.8346 133.871 80.1945 134.002 78.6324 134.568C77.1133 135.142 75.7949 136.083 74.6772 137.392L65.9896 130.545C68.2833 127.849 71.1893 125.948 74.7076 124.841C78.2259 123.734 82.2617 123.582 86.8149 124.385C91.9265 125.286 95.8385 127.083 98.5509 129.776C101.314 132.433 102.357 135.673 101.68 139.496C101.368 141.257 100.79 142.771 99.9447 144.04C99.1075 145.265 98.1757 146.274 97.1492 147.068C96.1733 147.826 94.9169 148.667 93.3799 149.592C91.6988 150.58 90.4347 151.464 89.5877 152.245C88.7483 152.983 88.2259 153.932 88.0205 155.091L76.5515 153.069ZM79.2734 171.088C77.1687 170.717 75.5431 169.766 74.3968 168.235C73.258 166.661 72.856 164.929 73.1907 163.04C73.5331 161.107 74.4804 159.635 76.0326 158.625C77.6277 157.621 79.4992 157.309 81.647 157.688C83.7947 158.067 85.4455 159 86.5995 160.488C87.7534 161.976 88.1592 163.686 87.8169 165.619C87.4822 167.508 86.5096 168.998 84.8992 170.087C83.2965 171.133 81.4212 171.467 79.2734 171.088Z"/>
</mask>
<path d="M76.5515 153.069C76.9319 150.922 77.7163 149.244 78.9047 148.036C80.1008 146.786 81.7492 145.482 83.85 144.125C85.3011 143.185 86.3958 142.381 87.1341 141.714C87.88 141.004 88.3328 140.198 88.4926 139.296C88.7132 138.051 88.3512 136.968 87.4067 136.049C86.5127 135.094 85.2281 134.469 83.5528 134.174C81.8346 133.871 80.1945 134.002 78.6324 134.568C77.1133 135.142 75.7949 136.083 74.6772 137.392L65.9896 130.545C68.2833 127.849 71.1893 125.948 74.7076 124.841C78.2259 123.734 82.2617 123.582 86.8149 124.385C91.9265 125.286 95.8385 127.083 98.5509 129.776C101.314 132.433 102.357 135.673 101.68 139.496C101.368 141.257 100.79 142.771 99.9447 144.04C99.1075 145.265 98.1757 146.274 97.1492 147.068C96.1733 147.826 94.9169 148.667 93.3799 149.592C91.6988 150.58 90.4347 151.464 89.5877 152.245C88.7483 152.983 88.2259 153.932 88.0205 155.091L76.5515 153.069ZM79.2734 171.088C77.1687 170.717 75.5431 169.766 74.3968 168.235C73.258 166.661 72.856 164.929 73.1907 163.04C73.5331 161.107 74.4804 159.635 76.0326 158.625C77.6277 157.621 79.4992 157.309 81.647 157.688C83.7947 158.067 85.4455 159 86.5995 160.488C87.7534 161.976 88.1592 163.686 87.8169 165.619C87.4822 167.508 86.5096 168.998 84.8992 170.087C83.2965 171.133 81.4212 171.467 79.2734 171.088Z" fill="white"/>
<path d="M76.5515 153.069L76.01 152.974L75.9141 153.515L76.4556 153.61L76.5515 153.069ZM78.9047 148.036L79.2966 148.422L79.302 148.416L78.9047 148.036ZM83.85 144.125L84.1481 144.587L84.1488 144.586L83.85 144.125ZM87.1341 141.714L87.5026 142.122L87.5079 142.117L87.5131 142.112L87.1341 141.714ZM87.4067 136.049L87.0051 136.425L87.0138 136.434L87.0229 136.443L87.4067 136.049ZM78.6324 134.568L78.4454 134.051L78.4385 134.054L78.6324 134.568ZM74.6772 137.392L74.3365 137.824L74.7517 138.151L75.0953 137.749L74.6772 137.392ZM65.9896 130.545L65.5709 130.189L65.201 130.624L65.649 130.977L65.9896 130.545ZM74.7076 124.841L74.8723 125.365L74.7076 124.841ZM98.5509 129.776L98.1633 130.166L98.1695 130.172L98.5509 129.776ZM99.9447 144.04L100.399 144.349L100.402 144.344L99.9447 144.04ZM97.1492 147.068L96.8131 146.633L96.812 146.634L97.1492 147.068ZM93.3799 149.592L93.6583 150.066L93.6632 150.063L93.3799 149.592ZM89.5877 152.245L89.9507 152.658L89.9603 152.649L89.5877 152.245ZM88.0205 155.091L87.9246 155.633L88.466 155.728L88.5619 155.187L88.0205 155.091ZM74.3968 168.235L73.9511 168.558L73.9565 168.565L74.3968 168.235ZM76.0326 158.625L75.74 158.159L75.7327 158.164L76.0326 158.625ZM86.5995 160.488L86.1648 160.825L86.1648 160.825L86.5995 160.488ZM84.8992 170.087L85.1997 170.547L85.2071 170.542L84.8992 170.087ZM77.093 153.165C77.4595 151.095 78.2059 149.53 79.2966 148.422L78.5128 147.651C77.2267 148.958 76.4042 150.748 76.01 152.974L77.093 153.165ZM79.302 148.416C80.4584 147.207 82.069 145.929 84.1481 144.587L83.5518 143.663C81.4294 145.034 79.7431 146.364 78.5074 147.656L79.302 148.416ZM84.1488 144.586C85.6094 143.64 86.7323 142.818 87.5026 142.122L86.7655 141.307C86.0592 141.945 84.9928 142.73 83.5512 143.664L84.1488 144.586ZM87.5131 142.112C88.333 141.332 88.8513 140.424 89.034 139.392L87.9511 139.201C87.8143 139.973 87.4269 140.677 86.755 141.316L87.5131 142.112ZM89.034 139.392C89.288 137.958 88.8588 136.695 87.7904 135.655L87.0229 136.443C87.8437 137.242 88.1384 138.144 87.9511 139.201L89.034 139.392ZM87.8083 135.673C86.8116 134.609 85.4059 133.942 83.6487 133.632L83.4569 134.715C85.0502 134.996 86.2138 135.58 87.0051 136.425L87.8083 135.673ZM83.6487 133.632C81.8407 133.313 80.1026 133.451 78.4454 134.051L78.8195 135.085C80.2864 134.553 81.8286 134.428 83.4569 134.715L83.6487 133.632ZM78.4385 134.054C76.8274 134.662 75.4333 135.66 74.2591 137.035L75.0953 137.749C76.1565 136.506 77.3993 135.621 78.8264 135.082L78.4385 134.054ZM75.0178 136.96L66.3302 130.113L65.649 130.977L74.3365 137.824L75.0178 136.96ZM66.4084 130.901C68.632 128.288 71.4485 126.443 74.8723 125.365L74.5429 124.317C70.9301 125.453 67.9346 127.411 65.5709 130.189L66.4084 130.901ZM74.8723 125.365C78.2877 124.291 82.2311 124.135 86.719 124.926L86.9108 123.843C82.2922 123.029 78.1641 123.177 74.5429 124.317L74.8723 125.365ZM86.719 124.926C91.7588 125.815 95.5544 127.576 98.1633 130.166L98.9385 129.386C96.1227 126.59 92.0942 124.757 86.9108 123.843L86.719 124.926ZM98.1695 130.172C100.799 132.701 101.784 135.756 101.138 139.4L102.221 139.591C102.93 135.591 101.829 132.166 98.9323 129.38L98.1695 130.172ZM101.138 139.4C100.837 141.099 100.283 142.54 99.4871 143.735L100.402 144.344C101.296 143.003 101.898 141.414 102.221 139.591L101.138 139.4ZM99.4907 143.73C98.6814 144.914 97.7879 145.879 96.8131 146.633L97.4854 147.503C98.5634 146.669 99.5336 145.616 100.399 144.349L99.4907 143.73ZM96.812 146.634C95.8591 147.374 94.6224 148.203 93.0966 149.121L93.6632 150.063C95.2113 149.131 96.4875 148.278 97.4864 147.502L96.812 146.634ZM93.1014 149.118C91.4064 150.114 90.104 151.022 89.2151 151.841L89.9603 152.649C90.7655 151.907 91.9912 151.046 93.6583 150.066L93.1014 149.118ZM89.2248 151.832C88.2862 152.657 87.7049 153.72 87.479 154.996L88.5619 155.187C88.7468 154.143 89.2103 153.309 89.9506 152.658L89.2248 151.832ZM88.1164 154.55L76.6474 152.528L76.4556 153.61L87.9246 155.633L88.1164 154.55ZM79.3693 170.547C77.3847 170.197 75.8896 169.311 74.837 167.905L73.9565 168.565C75.1965 170.221 76.9526 171.237 79.1776 171.629L79.3693 170.547ZM74.8424 167.913C73.7896 166.458 73.4238 164.876 73.7322 163.135L72.6493 162.944C72.2882 164.983 72.7264 166.865 73.9511 168.557L74.8424 167.913ZM73.7322 163.135C74.0498 161.342 74.9162 160.007 76.3324 159.085L75.7327 158.164C74.0445 159.263 73.0164 160.872 72.6493 162.944L73.7322 163.135ZM76.3251 159.09C77.7866 158.171 79.5151 157.87 81.5511 158.229L81.7428 157.147C79.4833 156.748 77.4688 157.072 75.74 158.159L76.3251 159.09ZM81.5511 158.229C83.587 158.588 85.1076 159.462 86.1648 160.825L87.0341 160.151C85.7835 158.538 84.0024 157.545 81.7428 157.147L81.5511 158.229ZM86.1648 160.825C87.2193 162.184 87.592 163.736 87.2754 165.523L88.3584 165.714C88.7265 163.636 88.2876 161.767 87.0341 160.151L86.1648 160.825ZM87.2754 165.523C86.967 167.264 86.0802 168.625 84.5914 169.632L85.2071 170.542C86.9391 169.371 87.9973 167.753 88.3584 165.714L87.2754 165.523ZM84.5989 169.627C83.1296 170.586 81.4002 170.905 79.3693 170.547L79.1776 171.629C81.4421 172.029 83.4633 171.68 85.1996 170.547L84.5989 169.627Z" fill="#202027" mask="url(#path-16-outside-4_22_1524)"/>
<rect x="0.276153" y="0.394712" width="113.73" height="151.867" rx="20.105" transform="matrix(0.984808 0.173648 -0.174411 0.984673 159.543 83.7833)" fill="#BCEC30"/>
<rect x="0.276153" y="0.394712" width="113.73" height="151.867" rx="20.105" transform="matrix(0.984808 0.173648 -0.174411 0.984673 159.543 83.7833)" stroke="#202027" stroke-width="0.681525"/>
<mask id="path-19-outside-5_22_1524" maskUnits="userSpaceOnUse" x="182.098" y="146.218" width="38.6647" height="45.9283" fill="black">
<rect fill="white" x="182.098" y="146.218" width="38.6647" height="45.9283"/>
<path d="M197.048 173.528C197.355 171.796 197.988 170.442 198.947 169.468C199.912 168.459 201.242 167.407 202.936 166.312C204.107 165.554 204.99 164.906 205.586 164.368C206.188 163.795 206.553 163.145 206.682 162.417C206.86 161.412 206.568 160.539 205.806 159.797C205.085 159.027 204.048 158.522 202.697 158.284C201.311 158.04 199.987 158.146 198.727 158.603C197.502 159.065 196.438 159.825 195.536 160.881L188.528 155.357C190.378 153.182 192.722 151.648 195.561 150.755C198.399 149.862 201.655 149.739 205.328 150.387C209.452 151.114 212.608 152.564 214.796 154.736C217.025 156.88 217.867 159.494 217.321 162.578C217.069 163.998 216.602 165.22 215.921 166.244C215.245 167.232 214.494 168.046 213.666 168.687C212.878 169.298 211.865 169.977 210.625 170.723C209.268 171.52 208.249 172.234 207.565 172.863C206.888 173.459 206.467 174.224 206.301 175.16L197.048 173.528ZM199.244 188.065C197.546 187.765 196.235 186.998 195.31 185.763C194.391 184.494 194.067 183.096 194.337 181.572C194.613 180.013 195.378 178.825 196.63 178.01C197.917 177.201 199.426 176.949 201.159 177.254C202.892 177.56 204.224 178.313 205.155 179.513C206.086 180.713 206.413 182.093 206.137 183.652C205.867 185.177 205.082 186.379 203.783 187.257C202.49 188.101 200.977 188.37 199.244 188.065Z"/>
</mask>
<path d="M197.048 173.528C197.355 171.796 197.988 170.442 198.947 169.468C199.912 168.459 201.242 167.407 202.936 166.312C204.107 165.554 204.99 164.906 205.586 164.368C206.188 163.795 206.553 163.145 206.682 162.417C206.86 161.412 206.568 160.539 205.806 159.797C205.085 159.027 204.048 158.522 202.697 158.284C201.311 158.04 199.987 158.146 198.727 158.603C197.502 159.065 196.438 159.825 195.536 160.881L188.528 155.357C190.378 153.182 192.722 151.648 195.561 150.755C198.399 149.862 201.655 149.739 205.328 150.387C209.452 151.114 212.608 152.564 214.796 154.736C217.025 156.88 217.867 159.494 217.321 162.578C217.069 163.998 216.602 165.22 215.921 166.244C215.245 167.232 214.494 168.046 213.666 168.687C212.878 169.298 211.865 169.977 210.625 170.723C209.268 171.52 208.249 172.234 207.565 172.863C206.888 173.459 206.467 174.224 206.301 175.16L197.048 173.528ZM199.244 188.065C197.546 187.765 196.235 186.998 195.31 185.763C194.391 184.494 194.067 183.096 194.337 181.572C194.613 180.013 195.378 178.825 196.63 178.01C197.917 177.201 199.426 176.949 201.159 177.254C202.892 177.56 204.224 178.313 205.155 179.513C206.086 180.713 206.413 182.093 206.137 183.652C205.867 185.177 205.082 186.379 203.783 187.257C202.49 188.101 200.977 188.37 199.244 188.065Z" fill="white"/>
<path d="M197.048 173.528L196.507 173.433L196.411 173.974L196.953 174.069L197.048 173.528ZM198.947 169.468L199.339 169.853L199.344 169.848L198.947 169.468ZM202.936 166.312L203.235 166.774L203.235 166.774L202.936 166.312ZM205.586 164.368L205.954 164.775L205.96 164.771L205.965 164.766L205.586 164.368ZM205.806 159.797L205.404 160.173L205.413 160.182L205.422 160.191L205.806 159.797ZM198.727 158.603L198.54 158.086L198.533 158.088L198.727 158.603ZM195.536 160.881L195.196 161.312L195.611 161.64L195.954 161.237L195.536 160.881ZM188.528 155.357L188.109 155.001L187.739 155.436L188.187 155.789L188.528 155.357ZM195.561 150.755L195.726 151.279L195.561 150.755ZM214.796 154.736L214.409 155.127L214.415 155.133L214.796 154.736ZM215.921 166.244L216.375 166.553L216.379 166.548L215.921 166.244ZM213.666 168.687L213.329 168.252L213.328 168.253L213.666 168.687ZM210.625 170.723L210.903 171.197L210.908 171.194L210.625 170.723ZM207.565 172.863L207.928 173.276L207.938 173.267L207.565 172.863ZM206.301 175.16L206.205 175.701L206.747 175.796L206.842 175.255L206.301 175.16ZM195.31 185.763L194.864 186.086L194.87 186.093L195.31 185.763ZM196.63 178.01L196.337 177.545L196.33 177.549L196.63 178.01ZM205.155 179.513L204.72 179.85L205.155 179.513ZM203.783 187.257L204.083 187.718L204.091 187.712L203.783 187.257ZM197.59 173.624C197.883 171.969 198.478 170.728 199.339 169.853L198.555 169.082C197.498 170.156 196.828 171.622 196.507 173.433L197.59 173.624ZM199.344 169.848C200.269 168.88 201.561 167.855 203.235 166.774L202.638 165.851C200.922 166.959 199.554 168.038 198.55 169.088L199.344 169.848ZM203.235 166.774C204.415 166.009 205.327 165.342 205.954 164.775L205.217 163.96C204.654 164.469 203.799 165.099 202.638 165.851L203.235 166.774ZM205.965 164.766C206.641 164.122 207.071 163.37 207.223 162.512L206.14 162.322C206.034 162.919 205.735 163.467 205.207 163.97L205.965 164.766ZM207.223 162.512C207.435 161.319 207.075 160.265 206.19 159.403L205.422 160.191C206.06 160.812 206.285 161.505 206.14 162.322L207.223 162.512ZM206.207 159.421C205.383 158.541 204.226 157.995 202.793 157.743L202.601 158.825C203.87 159.049 204.786 159.512 205.404 160.173L206.207 159.421ZM202.793 157.743C201.317 157.482 199.896 157.594 198.54 158.086L198.914 159.119C200.079 158.697 201.305 158.597 202.601 158.825L202.793 157.743ZM198.533 158.088C197.216 158.586 196.076 159.402 195.118 160.524L195.954 161.237C196.8 160.248 197.788 159.545 198.921 159.117L198.533 158.088ZM195.877 160.449L188.868 154.925L188.187 155.789L195.196 161.312L195.877 160.449ZM188.946 155.713C190.727 153.62 192.982 152.143 195.726 151.279L195.396 150.231C192.463 151.153 190.029 152.744 188.109 155.001L188.946 155.713ZM195.726 151.279C198.461 150.419 201.625 150.292 205.233 150.928L205.424 149.846C201.686 149.186 198.337 149.305 195.396 150.231L195.726 151.279ZM205.233 150.928C209.285 151.643 212.324 153.057 214.409 155.127L215.184 154.346C212.892 152.071 209.62 150.585 205.424 149.846L205.233 150.928ZM214.415 155.133C216.51 157.148 217.294 159.576 216.779 162.482L217.862 162.673C218.44 159.412 217.541 156.613 215.178 154.34L214.415 155.133ZM216.779 162.482C216.539 163.841 216.096 164.989 215.463 165.939L216.379 166.548C217.109 165.452 217.6 164.156 217.862 162.673L216.779 162.482ZM215.467 165.934C214.819 166.881 214.106 167.652 213.329 168.252L214.002 169.121C214.881 168.441 215.672 167.583 216.375 166.553L215.467 165.934ZM213.328 168.253C212.564 168.846 211.57 169.513 210.341 170.252L210.908 171.194C212.159 170.441 213.193 169.75 214.003 169.121L213.328 168.253ZM210.346 170.249C208.976 171.054 207.918 171.791 207.193 172.459L207.938 173.267C208.579 172.676 209.561 171.986 210.903 171.197L210.346 170.249ZM207.202 172.451C206.426 173.133 205.946 174.013 205.76 175.064L206.842 175.255C206.988 174.435 207.35 173.784 207.928 173.276L207.202 172.451ZM206.397 174.618L197.144 172.987L196.953 174.069L206.205 175.701L206.397 174.618ZM199.34 187.523C197.762 187.245 196.581 186.543 195.75 185.434L194.87 186.093C195.888 187.453 197.33 188.286 199.148 188.606L199.34 187.523ZM195.756 185.441C194.923 184.29 194.635 183.043 194.879 181.667L193.796 181.476C193.499 183.15 193.86 184.697 194.864 186.086L195.756 185.441ZM194.879 181.667C195.13 180.248 195.813 179.197 196.93 178.471L196.33 177.549C194.942 178.453 194.097 179.777 193.796 181.476L194.879 181.667ZM196.922 178.475C198.076 177.75 199.442 177.51 201.063 177.796L201.255 176.713C199.411 176.388 197.758 176.651 196.337 177.545L196.922 178.475ZM201.063 177.796C202.684 178.081 203.886 178.774 204.72 179.85L205.589 179.176C204.562 177.851 203.1 177.038 201.255 176.713L201.063 177.796ZM204.72 179.85C205.551 180.922 205.846 182.143 205.595 183.557L206.678 183.748C206.98 182.043 206.62 180.505 205.589 179.176L204.72 179.85ZM205.595 183.557C205.352 184.933 204.653 186.006 203.475 186.802L204.091 187.712C205.512 186.752 206.382 185.421 206.678 183.748L205.595 183.557ZM203.483 186.797C202.323 187.554 200.956 187.808 199.34 187.523L199.148 188.606C200.998 188.932 202.657 188.649 204.083 187.717L203.483 186.797Z" fill="#202027" mask="url(#path-19-outside-5_22_1524)"/>
<rect x="0.276153" y="0.394712" width="113.73" height="151.867" rx="20.105" transform="matrix(0.984808 0.173648 -0.174411 0.984673 278.829 104.817)" fill="#BCEC30"/>
<rect x="0.276153" y="0.394712" width="113.73" height="151.867" rx="20.105" transform="matrix(0.984808 0.173648 -0.174411 0.984673 278.829 104.817)" stroke="#202027" stroke-width="0.681525"/>
<mask id="path-22-outside-6_22_1524" maskUnits="userSpaceOnUse" x="296.748" y="161.634" width="47.128" height="56.0059" fill="black">
<rect fill="white" x="296.748" y="161.634" width="47.128" height="56.0059"/>
<path d="M315.125 195.136C315.505 192.988 316.29 191.311 317.478 190.103C318.674 188.852 320.322 187.549 322.423 186.192C323.874 185.252 324.969 184.448 325.707 183.781C326.453 183.071 326.906 182.265 327.066 181.363C327.286 180.118 326.924 179.035 325.98 178.116C325.086 177.161 323.801 176.536 322.126 176.24C320.408 175.937 318.768 176.069 317.206 176.635C315.687 177.209 314.368 178.15 313.25 179.459L304.563 172.612C306.857 169.916 309.763 168.015 313.281 166.908C316.799 165.801 320.835 165.649 325.388 166.452C330.5 167.353 334.412 169.15 337.124 171.843C339.887 174.5 340.93 177.74 340.253 181.563C339.941 183.324 339.363 184.838 338.518 186.107C337.681 187.332 336.749 188.341 335.722 189.135C334.747 189.893 333.49 190.734 331.953 191.659C330.272 192.647 329.008 193.531 328.161 194.312C327.322 195.05 326.799 195.999 326.594 197.158L315.125 195.136ZM317.847 213.155C315.742 212.784 314.116 211.833 312.97 210.302C311.831 208.728 311.429 206.996 311.764 205.107C312.106 203.174 313.054 201.702 314.606 200.691C316.201 199.688 318.072 199.376 320.22 199.755C322.368 200.133 324.019 201.067 325.173 202.555C326.327 204.043 326.732 205.753 326.39 207.686C326.055 209.575 325.083 211.065 323.472 212.154C321.87 213.2 319.994 213.534 317.847 213.155Z"/>
</mask>
<path d="M315.125 195.136C315.505 192.988 316.29 191.311 317.478 190.103C318.674 188.852 320.322 187.549 322.423 186.192C323.874 185.252 324.969 184.448 325.707 183.781C326.453 183.071 326.906 182.265 327.066 181.363C327.286 180.118 326.924 179.035 325.98 178.116C325.086 177.161 323.801 176.536 322.126 176.24C320.408 175.937 318.768 176.069 317.206 176.635C315.687 177.209 314.368 178.15 313.25 179.459L304.563 172.612C306.857 169.916 309.763 168.015 313.281 166.908C316.799 165.801 320.835 165.649 325.388 166.452C330.5 167.353 334.412 169.15 337.124 171.843C339.887 174.5 340.93 177.74 340.253 181.563C339.941 183.324 339.363 184.838 338.518 186.107C337.681 187.332 336.749 188.341 335.722 189.135C334.747 189.893 333.49 190.734 331.953 191.659C330.272 192.647 329.008 193.531 328.161 194.312C327.322 195.05 326.799 195.999 326.594 197.158L315.125 195.136ZM317.847 213.155C315.742 212.784 314.116 211.833 312.97 210.302C311.831 208.728 311.429 206.996 311.764 205.107C312.106 203.174 313.054 201.702 314.606 200.691C316.201 199.688 318.072 199.376 320.22 199.755C322.368 200.133 324.019 201.067 325.173 202.555C326.327 204.043 326.732 205.753 326.39 207.686C326.055 209.575 325.083 211.065 323.472 212.154C321.87 213.2 319.994 213.534 317.847 213.155Z" fill="white"/>
<path d="M315.125 195.136L314.583 195.04L314.487 195.582L315.029 195.677L315.125 195.136ZM317.478 190.103L317.87 190.489L317.875 190.483L317.478 190.103ZM322.423 186.192L322.721 186.653L322.722 186.653L322.423 186.192ZM325.707 183.781L326.076 184.189L326.081 184.184L326.086 184.179L325.707 183.781ZM325.98 178.116L325.578 178.492L325.587 178.501L325.596 178.51L325.98 178.116ZM317.206 176.635L317.019 176.118L317.012 176.121L317.206 176.635ZM313.25 179.459L312.91 179.891L313.325 180.218L313.669 179.816L313.25 179.459ZM304.563 172.612L304.144 172.256L303.774 172.691L304.222 173.044L304.563 172.612ZM313.281 166.908L313.446 167.432L313.281 166.908ZM337.124 171.843L336.737 172.233L336.743 172.239L337.124 171.843ZM338.518 186.107L338.972 186.416L338.976 186.411L338.518 186.107ZM335.722 189.135L335.386 188.7L335.385 188.701L335.722 189.135ZM331.953 191.659L332.232 192.133L332.236 192.13L331.953 191.659ZM328.161 194.312L328.524 194.725L328.534 194.716L328.161 194.312ZM326.594 197.158L326.498 197.7L327.039 197.795L327.135 197.254L326.594 197.158ZM312.97 210.302L312.524 210.624L312.53 210.632L312.97 210.302ZM314.606 200.691L314.313 200.226L314.306 200.231L314.606 200.691ZM325.173 202.555L324.738 202.892L324.738 202.892L325.173 202.555ZM323.472 212.154L323.773 212.614L323.78 212.609L323.472 212.154ZM315.666 195.231C316.033 193.162 316.779 191.597 317.87 190.489L317.086 189.718C315.8 191.025 314.977 192.815 314.583 195.04L315.666 195.231ZM317.875 190.483C319.032 189.274 320.642 187.996 322.721 186.653L322.125 185.73C320.003 187.101 318.316 188.431 317.081 189.723L317.875 190.483ZM322.722 186.653C324.183 185.707 325.306 184.885 326.076 184.189L325.339 183.373C324.632 184.012 323.566 184.797 322.124 185.73L322.722 186.653ZM326.086 184.179C326.906 183.399 327.425 182.49 327.607 181.459L326.524 181.268C326.388 182.04 326 182.744 325.328 183.383L326.086 184.179ZM327.607 181.459C327.861 180.025 327.432 178.762 326.364 177.722L325.596 178.51C326.417 179.309 326.712 180.21 326.524 181.268L327.607 181.459ZM326.382 177.74C325.385 176.675 323.979 176.009 322.222 175.699L322.03 176.782C323.623 177.063 324.787 177.646 325.578 178.492L326.382 177.74ZM322.222 175.699C320.414 175.38 318.676 175.518 317.019 176.118L317.393 177.152C318.86 176.62 320.402 176.495 322.03 176.782L322.222 175.699ZM317.012 176.121C315.401 176.729 314.007 177.727 312.832 179.102L313.669 179.816C314.73 178.573 315.973 177.688 317.4 177.149L317.012 176.121ZM313.591 179.027L304.903 172.18L304.222 173.044L312.91 179.891L313.591 179.027ZM304.982 172.968C307.205 170.355 310.022 168.509 313.446 167.432L313.116 166.383C309.503 167.52 306.508 169.478 304.144 172.256L304.982 172.968ZM313.446 167.432C316.861 166.358 320.804 166.202 325.292 166.993L325.484 165.91C320.865 165.096 316.737 165.244 313.116 166.383L313.446 167.432ZM325.292 166.993C330.332 167.882 334.128 169.643 336.737 172.233L337.512 171.453C334.696 168.657 330.667 166.824 325.484 165.91L325.292 166.993ZM336.743 172.239C339.372 174.768 340.357 177.822 339.712 181.467L340.794 181.658C341.503 177.658 340.402 174.233 337.506 171.447L336.743 172.239ZM339.712 181.467C339.411 183.166 338.856 184.607 338.06 185.802L338.976 186.411C339.869 185.069 340.472 183.481 340.794 181.658L339.712 181.467ZM338.064 185.797C337.255 186.981 336.361 187.946 335.386 188.7L336.059 189.569C337.137 188.736 338.107 187.683 338.972 186.416L338.064 185.797ZM335.385 188.701C334.432 189.441 333.196 190.27 331.67 191.188L332.236 192.13C333.785 191.198 335.061 190.345 336.06 189.569L335.385 188.701ZM331.675 191.185C329.98 192.181 328.677 193.089 327.788 193.908L328.534 194.716C329.339 193.974 330.564 193.113 332.232 192.133L331.675 191.185ZM327.798 193.899C326.859 194.724 326.278 195.787 326.052 197.063L327.135 197.254C327.32 196.21 327.784 195.375 328.524 194.725L327.798 193.899ZM326.69 196.617L315.221 194.595L315.029 195.677L326.498 197.7L326.69 196.617ZM317.943 212.613C315.958 212.264 314.463 211.378 313.41 209.972L312.53 210.632C313.77 212.288 315.526 213.304 317.751 213.696L317.943 212.613ZM313.416 209.98C312.363 208.525 311.997 206.943 312.305 205.202L311.223 205.011C310.861 207.05 311.3 208.932 312.524 210.624L313.416 209.98ZM312.305 205.202C312.623 203.409 313.489 202.074 314.906 201.152L314.306 200.231C312.618 201.33 311.59 202.939 311.223 205.011L312.305 205.202ZM314.898 201.157C316.36 200.238 318.088 199.937 320.124 200.296L320.316 199.213C318.057 198.815 316.042 199.139 314.313 200.226L314.898 201.157ZM320.124 200.296C322.16 200.655 323.681 201.528 324.738 202.892L325.607 202.218C324.357 200.605 322.576 199.612 320.316 199.213L320.124 200.296ZM324.738 202.892C325.792 204.251 326.165 205.803 325.849 207.59L326.932 207.781C327.3 205.703 326.861 203.834 325.607 202.218L324.738 202.892ZM325.849 207.59C325.54 209.331 324.653 210.692 323.165 211.699L323.78 212.609C325.512 211.438 326.571 209.819 326.932 207.781L325.849 207.59ZM323.172 211.694C321.703 212.652 319.973 212.972 317.943 212.613L317.751 213.696C320.015 214.096 322.037 213.747 323.773 212.614L323.172 211.694Z" fill="#202027" mask="url(#path-22-outside-6_22_1524)"/>
<rect x="0.276153" y="0.394712" width="113.73" height="151.867" rx="20.105" transform="matrix(0.984808 0.173648 -0.174411 0.984673 398.116 125.85)" fill="#BCEC30"/>
<rect x="0.276153" y="0.394712" width="113.73" height="151.867" rx="20.105" transform="matrix(0.984808 0.173648 -0.174411 0.984673 398.116 125.85)" stroke="#202027" stroke-width="0.681525"/>
<rect x="0.276153" y="0.394712" width="113.73" height="151.867" rx="20.105" transform="matrix(0.984808 0.173648 -0.174411 0.984673 -106.666 198.444)" fill="#BCEC30"/>
<rect x="0.276153" y="0.394712" width="113.73" height="151.867" rx="20.105" transform="matrix(0.984808 0.173648 -0.174411 0.984673 -106.666 198.444)" stroke="#202027" stroke-width="0.681525"/>
<rect x="0.276153" y="0.394712" width="113.73" height="151.867" rx="20.105" transform="matrix(0.984808 0.173648 -0.174411 0.984673 12.6209 219.478)" fill="#BCEC30"/>
<rect x="0.276153" y="0.394712" width="113.73" height="151.867" rx="20.105" transform="matrix(0.984808 0.173648 -0.174411 0.984673 12.6209 219.478)" stroke="#202027" stroke-width="0.681525"/>
<mask id="path-27-outside-7_22_1524" maskUnits="userSpaceOnUse" x="30.5402" y="276.295" width="47.128" height="56.0059" fill="black">
<rect fill="white" x="30.5402" y="276.295" width="47.128" height="56.0059"/>
<path d="M48.9167 309.797C49.2971 307.65 50.0815 305.972 51.2699 304.764C52.466 303.513 54.1144 302.21 56.2152 300.853C57.6663 299.913 58.761 299.109 59.4993 298.442C60.2452 297.732 60.698 296.926 60.8578 296.024C61.0784 294.779 60.7164 293.696 59.7719 292.777C58.8779 291.822 57.5933 291.197 55.9181 290.901C54.1999 290.599 52.5597 290.73 50.9977 291.296C49.4786 291.87 48.1602 292.811 47.0424 294.12L38.3549 287.273C40.6485 284.577 43.5545 282.676 47.0728 281.569C50.5911 280.462 54.6269 280.31 59.1801 281.113C64.2918 282.014 68.2038 283.811 70.9162 286.504C73.6791 289.161 74.7221 292.401 74.045 296.224C73.7331 297.985 73.1548 299.499 72.3099 300.768C71.4727 301.993 70.5409 303.002 69.5145 303.796C68.5386 304.554 67.2821 305.395 65.7451 306.32C64.064 307.308 62.8 308.192 61.9529 308.973C61.1135 309.711 60.5911 310.66 60.3857 311.819L48.9167 309.797ZM51.6387 327.816C49.5339 327.445 47.9083 326.494 46.762 324.963C45.6233 323.389 45.2213 321.657 45.556 319.768C45.8983 317.835 46.8456 316.363 48.3978 315.353C49.993 314.349 51.8644 314.037 54.0122 314.416C56.1599 314.795 57.8108 315.728 58.9647 317.216C60.1187 318.704 60.5245 320.414 60.1821 322.347C59.8474 324.236 58.8749 325.726 57.2645 326.815C55.6617 327.861 53.7864 328.195 51.6387 327.816Z"/>
</mask>
<path d="M48.9167 309.797C49.2971 307.65 50.0815 305.972 51.2699 304.764C52.466 303.513 54.1144 302.21 56.2152 300.853C57.6663 299.913 58.761 299.109 59.4993 298.442C60.2452 297.732 60.698 296.926 60.8578 296.024C61.0784 294.779 60.7164 293.696 59.7719 292.777C58.8779 291.822 57.5933 291.197 55.9181 290.901C54.1999 290.599 52.5597 290.73 50.9977 291.296C49.4786 291.87 48.1602 292.811 47.0424 294.12L38.3549 287.273C40.6485 284.577 43.5545 282.676 47.0728 281.569C50.5911 280.462 54.6269 280.31 59.1801 281.113C64.2918 282.014 68.2038 283.811 70.9162 286.504C73.6791 289.161 74.7221 292.401 74.045 296.224C73.7331 297.985 73.1548 299.499 72.3099 300.768C71.4727 301.993 70.5409 303.002 69.5145 303.796C68.5386 304.554 67.2821 305.395 65.7451 306.32C64.064 307.308 62.8 308.192 61.9529 308.973C61.1135 309.711 60.5911 310.66 60.3857 311.819L48.9167 309.797ZM51.6387 327.816C49.5339 327.445 47.9083 326.494 46.762 324.963C45.6233 323.389 45.2213 321.657 45.556 319.768C45.8983 317.835 46.8456 316.363 48.3978 315.353C49.993 314.349 51.8644 314.037 54.0122 314.416C56.1599 314.795 57.8108 315.728 58.9647 317.216C60.1187 318.704 60.5245 320.414 60.1821 322.347C59.8474 324.236 58.8749 325.726 57.2645 326.815C55.6617 327.861 53.7864 328.195 51.6387 327.816Z" fill="white"/>
<path d="M48.9167 309.797L48.3753 309.701L48.2794 310.243L48.8208 310.338L48.9167 309.797ZM51.2699 304.764L51.6618 305.15L51.6673 305.144L51.2699 304.764ZM56.2152 300.853L56.5134 301.314L56.514 301.314L56.2152 300.853ZM59.4993 298.442L59.8678 298.85L59.8731 298.845L59.8783 298.84L59.4993 298.442ZM59.7719 292.777L59.3703 293.153L59.379 293.162L59.3881 293.171L59.7719 292.777ZM50.9977 291.296L50.8106 290.779L50.8037 290.782L50.9977 291.296ZM47.0424 294.12L46.7018 294.552L47.117 294.879L47.4605 294.477L47.0424 294.12ZM38.3549 287.273L37.9361 286.917L37.5662 287.352L38.0142 287.705L38.3549 287.273ZM47.0728 281.569L47.2376 282.093L47.0728 281.569ZM70.9162 286.504L70.5285 286.894L70.5348 286.9L70.9162 286.504ZM72.3099 300.768L72.764 301.077L72.7676 301.072L72.3099 300.768ZM69.5145 303.796L69.1783 303.361L69.1773 303.362L69.5145 303.796ZM65.7451 306.32L66.0235 306.794L66.0284 306.791L65.7451 306.32ZM61.9529 308.973L62.3159 309.386L62.3255 309.377L61.9529 308.973ZM60.3857 311.819L60.2898 312.361L60.8313 312.456L60.9272 311.915L60.3857 311.819ZM46.762 324.963L46.3163 325.285L46.3217 325.293L46.762 324.963ZM48.3978 315.353L48.1052 314.887L48.0979 314.892L48.3978 315.353ZM58.9647 317.216L58.5301 317.553L58.5301 317.553L58.9647 317.216ZM57.2645 326.815L57.5649 327.275L57.5723 327.27L57.2645 326.815ZM49.4582 309.892C49.8247 307.823 50.5711 306.258 51.6618 305.15L50.8781 304.379C49.5919 305.686 48.7695 307.476 48.3753 309.701L49.4582 309.892ZM51.6673 305.144C52.8236 303.935 54.4342 302.657 56.5134 301.314L55.917 300.391C53.7946 301.762 52.1083 303.092 50.8726 304.384L51.6673 305.144ZM56.514 301.314C57.9746 300.368 59.0975 299.546 59.8678 298.85L59.1308 298.035C58.4245 298.673 57.358 299.458 55.9164 300.391L56.514 301.314ZM59.8783 298.84C60.6983 298.06 61.2165 297.151 61.3993 296.12L60.3163 295.929C60.1796 296.701 59.7922 297.405 59.1203 298.044L59.8783 298.84ZM61.3993 296.12C61.6532 294.686 61.224 293.423 60.1557 292.383L59.3881 293.171C60.2089 293.97 60.5036 294.872 60.3163 295.929L61.3993 296.12ZM60.1735 292.401C59.1768 291.336 57.7711 290.67 56.014 290.36L55.8222 291.443C57.4155 291.724 58.579 292.308 59.3703 293.153L60.1735 292.401ZM56.014 290.36C54.2059 290.041 52.4679 290.179 50.8106 290.779L51.1847 291.813C52.6516 291.281 54.1938 291.156 55.8222 291.443L56.014 290.36ZM50.8037 290.782C49.1926 291.39 47.7986 292.388 46.6243 293.763L47.4605 294.477C48.5217 293.234 49.7646 292.349 51.1917 291.81L50.8037 290.782ZM47.383 293.688L38.6955 286.841L38.0142 287.705L46.7018 294.552L47.383 293.688ZM38.7736 287.629C40.9972 285.016 43.8137 283.17 47.2376 282.093L46.9081 281.044C43.2953 282.181 40.2998 284.139 37.9361 286.917L38.7736 287.629ZM47.2376 282.093C50.6529 281.019 54.5964 280.863 59.0842 281.654L59.276 280.571C54.6574 279.757 50.5294 279.905 46.9081 281.044L47.2376 282.093ZM59.0842 281.654C64.1241 282.543 67.9196 284.304 70.5286 286.894L71.3038 286.114C68.488 283.318 64.4595 281.485 59.276 280.571L59.0842 281.654ZM70.5348 286.9C73.1638 289.429 74.1491 292.483 73.5035 296.128L74.5865 296.319C75.295 292.319 74.1945 288.894 71.2976 286.108L70.5348 286.9ZM73.5035 296.128C73.2026 297.827 72.6484 299.268 71.8523 300.463L72.7676 301.072C73.6611 299.731 74.2636 298.142 74.5865 296.319L73.5035 296.128ZM71.8559 300.458C71.0466 301.642 70.1532 302.607 69.1783 303.361L69.8506 304.231C70.9287 303.397 71.8989 302.344 72.764 301.077L71.8559 300.458ZM69.1773 303.362C68.2244 304.102 66.9877 304.931 65.4618 305.849L66.0284 306.791C67.5766 305.859 68.8528 305.006 69.8516 304.23L69.1773 303.362ZM65.4667 305.846C63.7716 306.842 62.4692 307.75 61.5803 308.569L62.3255 309.377C63.1307 308.635 64.3565 307.774 66.0235 306.794L65.4667 305.846ZM61.59 308.56C60.6515 309.385 60.0701 310.448 59.8442 311.724L60.9272 311.915C61.1121 310.871 61.5756 310.037 62.3158 309.386L61.59 308.56ZM60.4816 311.278L49.0126 309.256L48.8208 310.338L60.2898 312.361L60.4816 311.278ZM51.7346 327.275C49.7499 326.925 48.2549 326.039 47.2023 324.633L46.3217 325.293C47.5618 326.949 49.3179 327.965 51.5428 328.357L51.7346 327.275ZM47.2076 324.641C46.1549 323.186 45.789 321.604 46.0974 319.863L45.0145 319.672C44.6535 321.711 45.0916 323.593 46.3164 325.285L47.2076 324.641ZM46.0974 319.863C46.415 318.07 47.2814 316.735 48.6977 315.813L48.0979 314.892C46.4098 315.991 45.3816 317.6 45.0145 319.672L46.0974 319.863ZM48.6904 315.818C50.1519 314.899 51.8803 314.598 53.9163 314.957L54.1081 313.874C51.8485 313.476 49.8341 313.8 48.1053 314.887L48.6904 315.818ZM53.9163 314.957C55.9522 315.316 57.4728 316.19 58.5301 317.553L59.3994 316.879C58.1488 315.266 56.3676 314.273 54.1081 313.874L53.9163 314.957ZM58.5301 317.553C59.5845 318.912 59.9572 320.464 59.6407 322.251L60.7236 322.442C61.0917 320.364 60.6528 318.495 59.3994 316.879L58.5301 317.553ZM59.6407 322.251C59.3323 323.992 58.4454 325.353 56.9566 326.36L57.5723 327.27C59.3043 326.099 60.3626 324.481 60.7236 322.442L59.6407 322.251ZM56.9641 326.355C55.4949 327.314 53.7655 327.633 51.7346 327.275L51.5428 328.357C53.8074 328.757 55.8285 328.408 57.5648 327.275L56.9641 326.355Z" fill="#202027" mask="url(#path-27-outside-7_22_1524)"/>
<rect x="0.276153" y="0.394712" width="113.73" height="151.867" rx="20.105" transform="matrix(0.984808 0.173648 -0.174411 0.984673 131.908 240.511)" fill="#BCEC30"/>
<rect x="0.276153" y="0.394712" width="113.73" height="151.867" rx="20.105" transform="matrix(0.984808 0.173648 -0.174411 0.984673 131.908 240.511)" stroke="#202027" stroke-width="0.681525"/>
<mask id="path-30-outside-8_22_1524" maskUnits="userSpaceOnUse" x="149.827" y="297.329" width="47.128" height="56.0059" fill="black">
<rect fill="white" x="149.827" y="297.329" width="47.128" height="56.0059"/>
<path d="M168.204 330.83C168.584 328.683 169.369 327.005 170.557 325.798C171.753 324.547 173.402 323.243 175.502 321.886C176.953 320.946 178.048 320.143 178.786 319.476C179.532 318.766 179.985 317.96 180.145 317.058C180.366 315.812 180.004 314.73 179.059 313.81C178.165 312.856 176.88 312.23 175.205 311.935C173.487 311.632 171.847 311.764 170.285 312.33C168.766 312.903 167.447 313.845 166.33 315.153L157.642 308.307C159.936 305.611 162.842 303.709 166.36 302.602C169.878 301.495 173.914 301.343 178.467 302.146C183.579 303.048 187.491 304.845 190.203 307.537C192.966 310.195 194.009 313.435 193.332 317.257C193.02 319.018 192.442 320.533 191.597 321.801C190.76 323.026 189.828 324.036 188.802 324.829C187.826 325.587 186.569 326.429 185.032 327.354C183.351 328.342 182.087 329.226 181.24 330.007C180.401 330.744 179.878 331.693 179.673 332.853L168.204 330.83ZM170.926 348.849C168.821 348.478 167.195 347.527 166.049 345.996C164.91 344.423 164.508 342.691 164.843 340.801C165.185 338.868 166.133 337.397 167.685 336.386C169.28 335.383 171.152 335.071 173.299 335.449C175.447 335.828 177.098 336.761 178.252 338.249C179.406 339.737 179.812 341.447 179.469 343.38C179.135 345.27 178.162 346.759 176.552 347.848C174.949 348.894 173.074 349.228 170.926 348.849Z"/>
</mask>
<path d="M168.204 330.83C168.584 328.683 169.369 327.005 170.557 325.798C171.753 324.547 173.402 323.243 175.502 321.886C176.953 320.946 178.048 320.143 178.786 319.476C179.532 318.766 179.985 317.96 180.145 317.058C180.366 315.812 180.004 314.73 179.059 313.81C178.165 312.856 176.88 312.23 175.205 311.935C173.487 311.632 171.847 311.764 170.285 312.33C168.766 312.903 167.447 313.845 166.33 315.153L157.642 308.307C159.936 305.611 162.842 303.709 166.36 302.602C169.878 301.495 173.914 301.343 178.467 302.146C183.579 303.048 187.491 304.845 190.203 307.537C192.966 310.195 194.009 313.435 193.332 317.257C193.02 319.018 192.442 320.533 191.597 321.801C190.76 323.026 189.828 324.036 188.802 324.829C187.826 325.587 186.569 326.429 185.032 327.354C183.351 328.342 182.087 329.226 181.24 330.007C180.401 330.744 179.878 331.693 179.673 332.853L168.204 330.83ZM170.926 348.849C168.821 348.478 167.195 347.527 166.049 345.996C164.91 344.423 164.508 342.691 164.843 340.801C165.185 338.868 166.133 337.397 167.685 336.386C169.28 335.383 171.152 335.071 173.299 335.449C175.447 335.828 177.098 336.761 178.252 338.249C179.406 339.737 179.812 341.447 179.469 343.38C179.135 345.27 178.162 346.759 176.552 347.848C174.949 348.894 173.074 349.228 170.926 348.849Z" fill="white"/>
<path d="M168.204 330.83L167.662 330.735L167.566 331.276L168.108 331.372L168.204 330.83ZM170.557 325.798L170.949 326.183L170.954 326.177L170.557 325.798ZM175.502 321.886L175.8 322.348L175.801 322.348L175.502 321.886ZM178.786 319.476L179.155 319.884L179.16 319.879L179.165 319.874L178.786 319.476ZM179.059 313.81L178.657 314.186L178.666 314.195L178.675 314.204L179.059 313.81ZM170.285 312.33L170.098 311.813L170.091 311.815L170.285 312.33ZM166.33 315.153L165.989 315.585L166.404 315.912L166.748 315.51L166.33 315.153ZM157.642 308.307L157.223 307.951L156.853 308.385L157.301 308.738L157.642 308.307ZM166.36 302.602L166.525 303.127L166.36 302.602ZM190.203 307.537L189.816 307.928L189.822 307.934L190.203 307.537ZM191.597 321.801L192.051 322.111L192.055 322.106L191.597 321.801ZM188.802 324.829L188.465 324.394L188.464 324.395L188.802 324.829ZM185.032 327.354L185.311 327.827L185.316 327.824L185.032 327.354ZM181.24 330.007L181.603 330.42L181.613 330.411L181.24 330.007ZM179.673 332.853L179.577 333.394L180.118 333.49L180.214 332.948L179.673 332.853ZM166.049 345.996L165.603 346.319L165.609 346.326L166.049 345.996ZM167.685 336.386L167.392 335.921L167.385 335.925L167.685 336.386ZM178.252 338.249L177.817 338.586L177.817 338.586L178.252 338.249ZM176.552 347.848L176.852 348.309L176.859 348.304L176.552 347.848ZM168.745 330.926C169.112 328.857 169.858 327.292 170.949 326.183L170.165 325.412C168.879 326.719 168.057 328.509 167.662 330.735L168.745 330.926ZM170.954 326.177C172.111 324.968 173.721 323.691 175.8 322.348L175.204 321.425C173.082 322.795 171.395 324.126 170.16 325.418L170.954 326.177ZM175.801 322.348C177.262 321.401 178.385 320.579 179.155 319.884L178.418 319.068C177.712 319.706 176.645 320.491 175.204 321.425L175.801 322.348ZM179.165 319.874C179.985 319.093 180.504 318.185 180.686 317.153L179.603 316.962C179.467 317.735 179.079 318.438 178.407 319.078L179.165 319.874ZM180.686 317.153C180.94 315.72 180.511 314.456 179.443 313.416L178.675 314.204C179.496 315.003 179.791 315.905 179.603 316.962L180.686 317.153ZM179.461 313.435C178.464 312.37 177.058 311.703 175.301 311.394L175.109 312.476C176.703 312.757 177.866 313.341 178.657 314.186L179.461 313.435ZM175.301 311.394C173.493 311.075 171.755 311.212 170.098 311.813L170.472 312.846C171.939 312.315 173.481 312.189 175.109 312.476L175.301 311.394ZM170.091 311.815C168.48 312.424 167.086 313.422 165.911 314.797L166.748 315.51C167.809 314.268 169.052 313.383 170.479 312.844L170.091 311.815ZM166.67 314.722L157.983 307.875L157.301 308.738L165.989 315.585L166.67 314.722ZM158.061 308.663C160.284 306.049 163.101 304.204 166.525 303.127L166.195 302.078C162.582 303.215 159.587 305.172 157.223 307.951L158.061 308.663ZM166.525 303.127C169.94 302.052 173.883 301.896 178.371 302.688L178.563 301.605C173.945 300.79 169.816 300.939 166.195 302.078L166.525 303.127ZM178.371 302.688C183.411 303.576 187.207 305.337 189.816 307.928L190.591 307.147C187.775 304.352 183.747 302.519 178.563 301.605L178.371 302.688ZM189.822 307.934C192.451 310.462 193.436 313.517 192.791 317.162L193.874 317.353C194.582 313.352 193.482 309.927 190.585 307.141L189.822 307.934ZM192.791 317.162C192.49 318.861 191.935 320.301 191.139 321.497L192.055 322.106C192.948 320.764 193.551 319.175 193.874 317.353L192.791 317.162ZM191.143 321.491C190.334 322.676 189.44 323.641 188.465 324.394L189.138 325.264C190.216 324.431 191.186 323.377 192.051 322.111L191.143 321.491ZM188.464 324.395C187.511 325.135 186.275 325.964 184.749 326.883L185.316 327.824C186.864 326.893 188.14 326.039 189.139 325.263L188.464 324.395ZM184.754 326.88C183.059 327.876 181.756 328.783 180.867 329.603L181.613 330.411C182.418 329.669 183.644 328.807 185.311 327.827L184.754 326.88ZM180.877 329.594C179.939 330.419 179.357 331.482 179.131 332.757L180.214 332.948C180.399 331.904 180.863 331.07 181.603 330.419L180.877 329.594ZM179.769 332.311L168.3 330.289L168.108 331.372L179.577 333.394L179.769 332.311ZM171.022 348.308C169.037 347.958 167.542 347.072 166.489 345.667L165.609 346.326C166.849 347.982 168.605 348.999 170.83 349.391L171.022 348.308ZM166.495 345.674C165.442 344.219 165.076 342.638 165.385 340.897L164.302 340.706C163.941 342.744 164.379 344.626 165.603 346.319L166.495 345.674ZM165.385 340.897C165.702 339.104 166.569 337.769 167.985 336.847L167.385 335.925C165.697 337.025 164.669 338.633 164.302 340.706L165.385 340.897ZM167.977 336.851C169.439 335.932 171.167 335.632 173.203 335.991L173.395 334.908C171.136 334.51 169.121 334.834 167.392 335.921L167.977 336.851ZM173.203 335.991C175.239 336.35 176.76 337.223 177.817 338.586L178.686 337.912C177.436 336.3 175.655 335.306 173.395 334.908L173.203 335.991ZM177.817 338.586C178.872 339.946 179.244 341.498 178.928 343.285L180.011 343.476C180.379 341.397 179.94 339.528 178.686 337.912L177.817 338.586ZM178.928 343.285C178.619 345.026 177.732 346.386 176.244 347.393L176.859 348.304C178.591 347.132 179.65 345.514 180.011 343.476L178.928 343.285ZM176.251 347.388C174.782 348.347 173.053 348.666 171.022 348.308L170.83 349.391C173.094 349.79 175.116 349.442 176.852 348.309L176.251 347.388Z" fill="#202027" mask="url(#path-30-outside-8_22_1524)"/>
<rect x="0.276153" y="0.394712" width="113.73" height="151.867" rx="20.105" transform="matrix(0.984808 0.173648 -0.174411 0.984673 251.194 261.545)" fill="#BCEC30"/>
<rect x="0.276153" y="0.394712" width="113.73" height="151.867" rx="20.105" transform="matrix(0.984808 0.173648 -0.174411 0.984673 251.194 261.545)" stroke="#202027" stroke-width="0.681525"/>
<mask id="path-33-outside-9_22_1524" maskUnits="userSpaceOnUse" x="273.75" y="323.98" width="38.6647" height="45.9283" fill="black">
<rect fill="white" x="273.75" y="323.98" width="38.6647" height="45.9283"/>
<path d="M288.7 351.29C289.007 349.557 289.639 348.204 290.598 347.229C291.563 346.22 292.893 345.169 294.588 344.074C295.758 343.316 296.642 342.667 297.237 342.129C297.839 341.556 298.204 340.906 298.333 340.179C298.511 339.174 298.219 338.3 297.457 337.559C296.736 336.788 295.7 336.284 294.348 336.046C292.962 335.801 291.639 335.907 290.379 336.364C289.153 336.827 288.089 337.586 287.188 338.642L280.179 333.118C282.029 330.944 284.374 329.41 287.212 328.517C290.051 327.624 293.306 327.501 296.98 328.149C301.104 328.876 304.26 330.325 306.448 332.498C308.677 334.642 309.518 337.256 308.972 340.339C308.72 341.76 308.254 342.982 307.572 344.005C306.897 344.994 306.145 345.808 305.317 346.448C304.53 347.06 303.516 347.738 302.276 348.485C300.92 349.282 299.9 349.995 299.217 350.625C298.54 351.22 298.118 351.986 297.952 352.921L288.7 351.29ZM290.896 365.826C289.198 365.527 287.886 364.76 286.961 363.525C286.043 362.255 285.718 360.858 285.988 359.333C286.265 357.774 287.029 356.587 288.281 355.772C289.568 354.962 291.078 354.71 292.811 355.016C294.543 355.321 295.875 356.074 296.806 357.275C297.737 358.475 298.064 359.855 297.788 361.414C297.518 362.939 296.733 364.14 295.434 365.019C294.141 365.863 292.628 366.132 290.896 365.826Z"/>
</mask>
<path d="M288.7 351.29C289.007 349.557 289.639 348.204 290.598 347.229C291.563 346.22 292.893 345.169 294.588 344.074C295.758 343.316 296.642 342.667 297.237 342.129C297.839 341.556 298.204 340.906 298.333 340.179C298.511 339.174 298.219 338.3 297.457 337.559C296.736 336.788 295.7 336.284 294.348 336.046C292.962 335.801 291.639 335.907 290.379 336.364C289.153 336.827 288.089 337.586 287.188 338.642L280.179 333.118C282.029 330.944 284.374 329.41 287.212 328.517C290.051 327.624 293.306 327.501 296.98 328.149C301.104 328.876 304.26 330.325 306.448 332.498C308.677 334.642 309.518 337.256 308.972 340.339C308.72 341.76 308.254 342.982 307.572 344.005C306.897 344.994 306.145 345.808 305.317 346.448C304.53 347.06 303.516 347.738 302.276 348.485C300.92 349.282 299.9 349.995 299.217 350.625C298.54 351.22 298.118 351.986 297.952 352.921L288.7 351.29ZM290.896 365.826C289.198 365.527 287.886 364.76 286.961 363.525C286.043 362.255 285.718 360.858 285.988 359.333C286.265 357.774 287.029 356.587 288.281 355.772C289.568 354.962 291.078 354.71 292.811 355.016C294.543 355.321 295.875 356.074 296.806 357.275C297.737 358.475 298.064 359.855 297.788 361.414C297.518 362.939 296.733 364.14 295.434 365.019C294.141 365.863 292.628 366.132 290.896 365.826Z" fill="white"/>
<path d="M288.7 351.29L288.158 351.194L288.062 351.735L288.604 351.831L288.7 351.29ZM290.598 347.229L290.99 347.615L290.996 347.609L290.598 347.229ZM294.588 344.074L294.886 344.536L294.887 344.535L294.588 344.074ZM297.237 342.129L297.606 342.537L297.611 342.532L297.616 342.527L297.237 342.129ZM297.457 337.559L297.056 337.934L297.064 337.944L297.073 337.953L297.457 337.559ZM290.379 336.364L290.191 335.847L290.185 335.85L290.379 336.364ZM287.188 338.642L286.847 339.074L287.262 339.401L287.606 338.999L287.188 338.642ZM280.179 333.118L279.76 332.762L279.39 333.197L279.838 333.55L280.179 333.118ZM287.212 328.517L287.377 329.041L287.212 328.517ZM306.448 332.498L306.06 332.888L306.066 332.894L306.448 332.498ZM307.572 344.005L308.026 344.315L308.03 344.31L307.572 344.005ZM305.317 346.448L304.981 346.013L304.98 346.014L305.317 346.448ZM302.276 348.485L302.555 348.958L302.559 348.955L302.276 348.485ZM299.217 350.625L299.58 351.038L299.589 351.029L299.217 350.625ZM297.952 352.921L297.856 353.462L298.398 353.558L298.494 353.017L297.952 352.921ZM286.961 363.525L286.516 363.847L286.521 363.854L286.961 363.525ZM288.281 355.771L287.989 355.306L287.981 355.311L288.281 355.771ZM296.806 357.275L296.371 357.612L296.806 357.275ZM295.434 365.019L295.735 365.479L295.742 365.474L295.434 365.019ZM289.241 351.385C289.534 349.731 290.129 348.49 290.99 347.615L290.206 346.844C289.15 347.918 288.479 349.383 288.158 351.194L289.241 351.385ZM290.996 347.609C291.921 346.642 293.213 345.616 294.886 344.536L294.29 343.612C292.573 344.721 291.205 345.799 290.201 346.85L290.996 347.609ZM294.887 344.535C296.067 343.771 296.978 343.104 297.606 342.537L296.869 341.721C296.305 342.231 295.45 342.86 294.289 343.613L294.887 344.535ZM297.616 342.527C298.292 341.884 298.723 341.131 298.875 340.274L297.792 340.083C297.686 340.681 297.386 341.229 296.858 341.731L297.616 342.527ZM298.875 340.274C299.086 339.081 298.727 338.027 297.841 337.165L297.073 337.953C297.712 338.574 297.936 339.266 297.792 340.083L298.875 340.274ZM297.859 337.183C297.035 336.303 295.877 335.757 294.444 335.504L294.252 336.587C295.522 336.811 296.437 337.274 297.056 337.934L297.859 337.183ZM294.444 335.504C292.968 335.244 291.547 335.356 290.192 335.847L290.566 336.881C291.731 336.459 292.956 336.358 294.252 336.587L294.444 335.504ZM290.185 335.85C288.867 336.347 287.728 337.163 286.77 338.285L287.606 338.999C288.451 338.009 289.439 337.306 290.573 336.878L290.185 335.85ZM287.528 338.21L280.52 332.687L279.838 333.55L286.847 339.074L287.528 338.21ZM280.598 333.474C282.378 331.382 284.633 329.904 287.377 329.041L287.047 327.992C284.115 328.915 281.681 330.505 279.76 332.762L280.598 333.474ZM287.377 329.041C290.112 328.18 293.276 328.054 296.884 328.69L297.076 327.607C293.337 326.948 289.989 327.067 287.047 327.992L287.377 329.041ZM296.884 328.69C300.936 329.404 303.975 330.818 306.06 332.888L306.835 332.108C304.544 329.833 301.271 328.347 297.076 327.607L296.884 328.69ZM306.066 332.894C308.161 334.909 308.945 337.338 308.431 340.244L309.513 340.435C310.091 337.173 309.192 334.374 306.829 332.102L306.066 332.894ZM308.431 340.244C308.19 341.603 307.747 342.751 307.115 343.701L308.03 344.31C308.76 343.213 309.251 341.917 309.513 340.435L308.431 340.244ZM307.118 343.695C306.471 344.643 305.757 345.413 304.981 346.013L305.653 346.883C306.533 346.203 307.323 345.344 308.026 344.315L307.118 343.695ZM304.98 346.014C304.215 346.608 303.222 347.274 301.993 348.014L302.559 348.955C303.81 348.203 304.844 347.511 305.654 346.882L304.98 346.014ZM301.998 348.011C300.627 348.816 299.569 349.552 298.844 350.221L299.589 351.029C300.231 350.438 301.212 349.747 302.554 348.958L301.998 348.011ZM298.854 350.212C298.077 350.895 297.597 351.774 297.411 352.826L298.494 353.017C298.639 352.197 299.002 351.546 299.58 351.038L298.854 350.212ZM298.048 352.38L288.796 350.748L288.604 351.831L297.856 353.462L298.048 352.38ZM290.992 365.285C289.414 365.007 288.233 364.305 287.402 363.195L286.521 363.854C287.54 365.215 288.982 366.047 290.8 366.368L290.992 365.285ZM287.407 363.202C286.574 362.052 286.286 360.805 286.53 359.429L285.447 359.238C285.151 360.911 285.511 362.459 286.516 363.847L287.407 363.202ZM286.53 359.429C286.781 358.009 287.465 356.959 288.581 356.232L287.981 355.311C286.593 356.215 285.748 357.539 285.447 359.238L286.53 359.429ZM288.574 356.237C289.727 355.512 291.094 355.271 292.715 355.557L292.906 354.474C291.062 354.149 289.409 354.413 287.989 355.306L288.574 356.237ZM292.715 355.557C294.336 355.843 295.537 356.536 296.371 357.612L297.241 356.938C296.213 355.613 294.751 354.8 292.906 354.474L292.715 355.557ZM296.371 357.612C297.203 358.684 297.497 359.905 297.247 361.319L298.33 361.509C298.632 359.805 298.271 358.266 297.241 356.938L296.371 357.612ZM297.247 361.319C297.003 362.694 296.304 363.767 295.126 364.563L295.742 365.474C297.163 364.513 298.033 363.183 298.33 361.509L297.247 361.319ZM295.134 364.558C293.974 365.315 292.607 365.57 290.992 365.285L290.8 366.368C292.649 366.694 294.308 366.41 295.735 365.479L295.134 364.558Z" fill="#202027" mask="url(#path-33-outside-9_22_1524)"/>
<rect x="0.276153" y="0.394712" width="113.73" height="151.867" rx="20.105" transform="matrix(0.984808 0.173648 -0.174411 0.984673 370.481 282.578)" fill="#BCEC30"/>
<rect x="0.276153" y="0.394712" width="113.73" height="151.867" rx="20.105" transform="matrix(0.984808 0.173648 -0.174411 0.984673 370.481 282.578)" stroke="#202027" stroke-width="0.681525"/>
<g filter="url(#filter0_d_22_1524)">
<rect width="148.448" height="197.931" rx="20.4457" transform="matrix(0.984808 0.173648 -0.174411 0.984673 146.736 58.4386)" fill="#E1FF8F"/>
<rect x="-0.276153" y="-0.394712" width="149.13" height="198.613" rx="20.7865" transform="matrix(0.984808 0.173648 -0.174411 0.984673 146.663 58.4805)" stroke="#202027" stroke-width="0.681525"/>
<rect x="-0.276153" y="-0.394712" width="149.13" height="198.613" rx="20.7865" transform="matrix(0.984808 0.173648 -0.174411 0.984673 146.663 58.4805)" stroke="black" stroke-opacity="0.2" stroke-width="0.681525"/>
</g>
<mask id="path-38-outside-10_22_1524" maskUnits="userSpaceOnUse" x="169.014" y="132.317" width="62.5467" height="73.0335" fill="black">
<rect fill="white" x="169.014" y="132.317" width="62.5467" height="73.0335"/>
<path d="M193.893 176.088C194.4 173.225 195.446 170.988 197.03 169.378C198.625 167.71 200.823 165.972 203.624 164.163C205.559 162.909 207.018 161.838 208.003 160.948C208.997 160.002 209.601 158.927 209.814 157.725C210.108 156.064 209.626 154.621 208.366 153.395C207.174 152.121 205.461 151.288 203.228 150.894C200.937 150.49 198.75 150.666 196.667 151.42C194.642 152.185 192.884 153.44 191.394 155.185L179.81 146.056C182.868 142.462 186.743 139.927 191.434 138.451C196.125 136.975 201.506 136.772 207.577 137.842C214.393 139.044 219.609 141.44 223.225 145.031C226.909 148.574 228.3 152.894 227.397 157.99C226.981 160.338 226.21 162.358 225.084 164.049C223.967 165.683 222.725 167.029 221.356 168.086C220.055 169.097 218.38 170.219 216.33 171.452C214.089 172.769 212.404 173.949 211.274 174.99C210.155 175.973 209.458 177.238 209.185 178.784L193.893 176.088ZM197.522 200.113C194.715 199.619 192.548 198.351 191.02 196.309C189.501 194.211 188.965 191.902 189.412 189.382C189.868 186.805 191.131 184.843 193.201 183.495C195.328 182.158 197.823 181.742 200.687 182.247C203.55 182.752 205.751 183.996 207.29 185.98C208.829 187.964 209.37 190.244 208.913 192.821C208.467 195.341 207.17 197.327 205.023 198.779C202.886 200.173 200.386 200.618 197.522 200.113Z"/>
</mask>
<path d="M193.893 176.088C194.4 173.225 195.446 170.988 197.03 169.378C198.625 167.71 200.823 165.972 203.624 164.163C205.559 162.909 207.018 161.838 208.003 160.948C208.997 160.002 209.601 158.927 209.814 157.725C210.108 156.064 209.626 154.621 208.366 153.395C207.174 152.121 205.461 151.288 203.228 150.894C200.937 150.49 198.75 150.666 196.667 151.42C194.642 152.185 192.884 153.44 191.394 155.185L179.81 146.056C182.868 142.462 186.743 139.927 191.434 138.451C196.125 136.975 201.506 136.772 207.577 137.842C214.393 139.044 219.609 141.44 223.225 145.031C226.909 148.574 228.3 152.894 227.397 157.99C226.981 160.338 226.21 162.358 225.084 164.049C223.967 165.683 222.725 167.029 221.356 168.086C220.055 169.097 218.38 170.219 216.33 171.452C214.089 172.769 212.404 173.949 211.274 174.99C210.155 175.973 209.458 177.238 209.185 178.784L193.893 176.088ZM197.522 200.113C194.715 199.619 192.548 198.351 191.02 196.309C189.501 194.211 188.965 191.902 189.412 189.382C189.868 186.805 191.131 184.843 193.201 183.495C195.328 182.158 197.823 181.742 200.687 182.247C203.55 182.752 205.751 183.996 207.29 185.98C208.829 187.964 209.37 190.244 208.913 192.821C208.467 195.341 207.17 197.327 205.023 198.779C202.886 200.173 200.386 200.618 197.522 200.113Z" fill="white"/>
<path d="M193.893 176.088L193.221 175.97L193.103 176.641L193.774 176.759L193.893 176.088ZM197.03 169.378L197.516 169.855L197.523 169.848L197.03 169.378ZM203.624 164.163L203.994 164.735L203.994 164.734L203.624 164.163ZM208.003 160.948L208.46 161.454L208.466 161.448L208.473 161.442L208.003 160.948ZM208.366 153.395L207.868 153.86L207.879 153.872L207.89 153.883L208.366 153.395ZM196.667 151.42L196.435 150.78L196.427 150.783L196.667 151.42ZM191.394 155.185L190.971 155.721L191.486 156.126L191.912 155.628L191.394 155.185ZM179.81 146.056L179.291 145.615L178.833 146.154L179.388 146.592L179.81 146.056ZM191.434 138.451L191.638 139.101L191.638 139.101L191.434 138.451ZM223.225 145.031L222.745 145.514L222.752 145.522L223.225 145.031ZM225.084 164.049L225.646 164.433L225.651 164.426L225.084 164.049ZM221.356 168.086L220.94 167.547L220.938 167.548L221.356 168.086ZM216.33 171.452L216.676 172.04L216.682 172.036L216.33 171.452ZM211.274 174.99L211.724 175.501L211.73 175.496L211.736 175.49L211.274 174.99ZM209.185 178.784L209.066 179.456L209.737 179.574L209.856 178.903L209.185 178.784ZM191.02 196.309L190.467 196.709L190.474 196.718L191.02 196.309ZM193.201 183.495L192.838 182.919L192.829 182.925L193.201 183.495ZM207.29 185.98L206.751 186.398L207.29 185.98ZM205.023 198.779L205.395 199.349L205.405 199.343L205.023 198.779ZM194.564 176.206C195.054 173.44 196.053 171.343 197.516 169.855L196.544 168.9C194.839 170.633 193.746 173.01 193.221 175.97L194.564 176.206ZM197.523 169.848C199.068 168.232 201.219 166.527 203.994 164.735L203.254 163.59C200.426 165.417 198.182 167.188 196.538 168.907L197.523 169.848ZM203.994 164.734C205.941 163.473 207.435 162.379 208.46 161.454L207.546 160.443C206.601 161.297 205.177 162.345 203.254 163.591L203.994 164.734ZM208.473 161.442C209.559 160.408 210.244 159.206 210.485 157.843L209.143 157.606C208.958 158.648 208.436 159.596 207.533 160.455L208.473 161.442ZM210.485 157.843C210.821 155.949 210.255 154.282 208.842 152.906L207.89 153.883C208.996 154.96 209.396 156.179 209.143 157.606L210.485 157.843ZM208.864 152.929C207.545 151.52 205.682 150.635 203.347 150.223L203.109 151.565C205.241 151.941 206.804 152.723 207.868 153.86L208.864 152.929ZM203.347 150.223C200.944 149.799 198.636 149.982 196.435 150.78L196.899 152.061C198.864 151.349 200.929 151.181 203.109 151.565L203.347 150.223ZM196.427 150.783C194.287 151.591 192.436 152.916 190.875 154.743L191.912 155.628C193.332 153.964 194.996 152.78 196.908 152.058L196.427 150.783ZM191.816 154.65L180.232 145.521L179.388 146.592L190.971 155.721L191.816 154.65ZM180.329 146.498C183.301 143.005 187.064 140.54 191.638 139.101L191.23 137.801C186.422 139.313 182.436 141.918 179.291 145.615L180.329 146.498ZM191.638 139.101C196.202 137.665 201.468 137.457 207.458 138.513L207.696 137.171C201.544 136.087 196.049 136.285 191.23 137.801L191.638 139.101ZM207.458 138.513C214.185 139.7 219.256 142.051 222.745 145.514L223.706 144.547C219.961 140.829 214.601 138.389 207.696 137.171L207.458 138.513ZM222.752 145.522C226.27 148.905 227.59 152.996 226.726 157.872L228.068 158.109C229.01 152.792 227.548 148.242 223.698 144.539L222.752 145.522ZM226.726 157.872C226.324 160.143 225.582 162.071 224.516 163.671L225.651 164.426C226.838 162.645 227.639 160.533 228.068 158.109L226.726 157.872ZM224.521 163.665C223.439 165.248 222.244 166.539 220.94 167.547L221.773 168.625C223.206 167.518 224.495 166.117 225.646 164.433L224.521 163.665ZM220.938 167.548C219.666 168.537 218.015 169.644 215.979 170.868L216.682 172.036C218.745 170.795 220.445 169.657 221.774 168.624L220.938 167.548ZM215.985 170.865C213.727 172.192 211.994 173.4 210.812 174.489L211.736 175.49C212.814 174.497 214.451 173.347 216.676 172.04L215.985 170.865ZM210.824 174.478C209.582 175.57 208.813 176.976 208.513 178.666L209.856 178.903C210.104 177.5 210.728 176.377 211.724 175.501L210.824 174.478ZM209.303 178.113L194.011 175.417L193.774 176.759L209.066 179.456L209.303 178.113ZM197.641 199.442C194.983 198.974 192.978 197.787 191.565 195.901L190.474 196.718C192.119 198.914 194.448 200.263 197.403 200.784L197.641 199.442ZM191.572 195.91C190.16 193.959 189.669 191.836 190.083 189.501L188.74 189.264C188.262 191.968 188.842 194.463 190.467 196.709L191.572 195.91ZM190.083 189.501C190.509 187.097 191.671 185.304 193.572 184.066L192.829 182.925C190.591 184.382 189.228 186.514 188.74 189.264L190.083 189.501ZM193.563 184.072C195.525 182.839 197.843 182.437 200.568 182.918L200.805 181.576C197.803 181.046 195.131 181.477 192.838 182.919L193.563 184.072ZM200.568 182.918C203.293 183.398 205.332 184.568 206.751 186.398L207.829 185.562C206.17 183.424 203.808 182.105 200.805 181.576L200.568 182.918ZM206.751 186.398C208.166 188.222 208.666 190.306 208.242 192.703L209.584 192.939C210.073 190.182 209.491 187.705 207.829 185.562L206.751 186.398ZM208.242 192.703C207.828 195.038 206.638 196.864 204.641 198.214L205.405 199.343C207.702 197.789 209.105 195.643 209.584 192.939L208.242 192.703ZM204.651 198.208C202.679 199.495 200.36 199.922 197.641 199.442L197.403 200.784C200.412 201.315 203.093 200.852 205.395 199.349L204.651 198.208Z" fill="#202027" mask="url(#path-38-outside-10_22_1524)"/>
</g>
<defs>
<filter id="filter0_d_22_1524" x="67.0985" y="29.7282" width="270.947" height="310.908" filterUnits="userSpaceOnUse" color-interpolation-filters="sRGB">
<feFlood flood-opacity="0" result="BackgroundImageFix"/>
<feColorMatrix in="SourceAlpha" type="matrix" values="0 0 0 0 0 0 0 0 0 0 0 0 0 0 0 0 0 0 127 0" result="hardAlpha"/>
<feMorphology radius="9.84355" operator="erode" in="SourceAlpha" result="effect1_dropShadow_22_1524"/>
<feOffset dy="16.4059"/>
<feGaussianBlur stdDeviation="27.4799"/>
<feComposite in2="hardAlpha" operator="out"/>
<feColorMatrix type="matrix" values="0 0 0 0 0 0 0 0 0 0 0 0 0 0 0 0 0 0 0.3 0"/>
<feBlend mode="normal" in2="BackgroundImageFix" result="effect1_dropShadow_22_1524"/>
<feBlend mode="normal" in="SourceGraphic" in2="effect1_dropShadow_22_1524" result="shape"/>
</filter>
<clipPath id="clip0_22_1524">
<rect width="406.228" height="337.449" rx="32.2403" fill="white"/>
</clipPath>
</defs>
</svg>
